<svg xmlns="http://www.w3.org/2000/svg" viewBox="0 0 68.16 106.68"><defs><style>.cls-1{fill:#637382;}.cls-2{fill:#748599;}.cls-3{fill:#48627a;}.cls-4{fill:#1a2432;}.cls-5{fill:#2e6f9c;}.cls-6{fill:#6ce9a6;}.cls-7{fill:#afc0d4;}.cls-8{fill:#869cb3;}</style></defs><g id="Layer_6" data-name="Layer 6"><g id="Layer_2-2" data-name="Layer 2"><g id="win"><path class="cls-1" d="M20,73.06s-20-63,13.92-63c35.49,0,14,63,14,63Z"/><path class="cls-2" d="M36.15,28.69s-1.27-2.86-2.21-3.6h0c-.93.74-2.19,3.6-2.19,3.6.3,3.59,2.19,4.36,2.19,4.37h0S35.84,32.26,36.15,28.69Z"/><path class="cls-2" d="M36.15,19.39s-1.27-2.87-2.21-3.6h0c-.93.73-2.19,3.6-2.19,3.6.3,3.58,2.19,4.36,2.19,4.36h0S35.84,23,36.15,19.39Z"/><path class="cls-2" d="M36.15,10.74s-1.27-2.86-2.21-3.59h0c-.93.73-2.19,3.59-2.19,3.59.3,3.59,2.19,4.36,2.19,4.37h0S35.84,14.33,36.15,10.74Z"/><polygon class="cls-3" points="15.9 61.97 14.7 60.35 14.7 77.64 14.84 77.53 16.21 78.14 16.21 61.97 15.9 61.97"/><polygon class="cls-3" points="42.31 78.16 39.13 73.61 40.73 78.16 42.31 78.16"/><path class="cls-1" d="M67.51,42.46,55.17,48.69l-21.1,3.85L13,48.69.65,42.43,8,65.62,3.65,67.44S10.89,77.32,15.2,77.7l3,5.31h2l13.88,3.16h.06L48,83h2l3-5.31c4.31-.37,11.55-10.26,11.55-10.26l-4.46-1.75Z"/><path class="cls-1" d="M50.75,78.42,34.07,79l-16.66-.59s2.06,9.24,5.83,14,3,7,2.24,9.45a4.8,4.8,0,0,0,2.8-1s-.37,4.75.89,5.67c0,0,2.15-4.37,4.9-4.31S39,106.55,39,106.55c1.26-.92.89-5.67.89-5.67a4.82,4.82,0,0,0,2.79,1c-.76-2.48-1.51-4.64,2.25-9.45S50.75,78.42,50.75,78.42Z"/><path class="cls-4" d="M34.07,87.16,21.51,79.23S25.7,100.09,34,99.41c8.34.69,12.55-20.17,12.55-20.17Z"/><path class="cls-5" d="M34.07,84.91l-7.76-7.22S28.9,96.58,34.07,96c5.18.64,7.81-18.28,7.81-18.28Z"/><path class="cls-6" d="M34.07,84.12l-9.29-6.39S27.88,94.56,34.07,94c6.21.56,9.31-16.26,9.31-16.26Z"/><path class="cls-7" d="M31.51,96.22A6.64,6.64,0,0,1,28,92.9s-.86,3,2.43,5.18c0,0,1.2.18,1.5-.38S31.51,96.22,31.51,96.22Z"/><path class="cls-7" d="M36.63,96.22a6.57,6.57,0,0,0,3.54-3.32s.87,3-2.42,5.18c0,0-1.21.18-1.49-.38S36.63,96.22,36.63,96.22Z"/><path class="cls-7" d="M24.42,81.55a26.74,26.74,0,0,0,2.4,8.64,12.7,12.7,0,0,0,1.5-5.66Z"/><path class="cls-7" d="M43.73,81.55a26.47,26.47,0,0,1-2.39,8.64,12.83,12.83,0,0,1-1.5-5.66Z"/><path class="cls-2" d="M64.35,23.09s-11.09,6.11-14.2,7.08c0,0-7.23,2.17-9.14.66s-6.93-2.35-6.94-2.35h0s-5,.8-6.93,2.35a2.74,2.74,0,0,1-.75.36c-2.56.73-8.39-1-8.39-1-3.11-1-14.21-7.13-14.21-7.13-.35,9.2,3.33,20.27,3.33,20.27l4.72,6.36c0,2.11-.43,2.63-.43,2.63L8.7,51.8,12,55.24v1.91L8.66,58.34l3.67,1.35.57,3.72-4,4.1,5.64-.32s4.28,8.66,4.38,9.34-1.24,3.89-1.24,3.89l3.09-1.12-.14,3.6L22.81,81A12.85,12.85,0,0,0,34,87.85h0a13,13,0,0,0,11.26-6.8l2.18,1.86-.14-3.6,3.18,1.08s-1.32-3.19-1.23-3.88,4.34-9.38,4.34-9.38l5.64.32-4-4.1.58-3.72,3.67-1.35-3.35-1.19v-1.9l3.35-3.44-2.7.52h0s-.41-.47-.41-2.59l4.7-6.31S64.72,32.29,64.35,23.09Z"/><polygon class="cls-6" points="21.55 64.08 23.82 64.83 23.82 67.83 22.48 67.06 23.16 74.36 20.63 65.17 21.8 65.67 21.55 64.08"/><polygon class="cls-6" points="19.75 31.89 18.32 34.48 27.32 35.95 26.91 32.48 19.75 31.89"/><path class="cls-6" d="M51.63,31.11l11-5.91-8.12,9.68A6.55,6.55,0,0,1,51.63,31.11Z"/><path class="cls-4" d="M15.63,52.29c3.19-2.59,9.87,5.69,6.68,8.27l-3,3.52.54-3.43L18,61.8l.6-3.19-1.76-1.54C15.19,55.36,15.63,52.29,15.63,52.29Z"/><path class="cls-6" d="M24.25,63c2.79-2.3-2.88-9.23-5.65-7a5.65,5.65,0,0,0,.27,4.14C20.37,63,24.25,63,24.25,63Z"/><ellipse class="cls-4" cx="21.66" cy="59.04" rx="0.52" ry="2.75"/><path class="cls-2" d="M15.63,52.29l3,3.69,7.68,5.83c1.56-6-1.53-10.22-8.07-13.09Z"/><polygon class="cls-6" points="25.02 58.72 23.82 52.31 25.59 52.84 21.66 42.47 21.66 51.2 19.36 49.88 19.75 55.13 25.02 58.72"/><path class="cls-4" d="M52.51,52.29c-3.2-2.59-9.86,5.69-6.67,8.27l3,3.52-.55-3.43,1.88,1.15-.66-3.19,1.8-1.53C53,55.36,52.51,52.29,52.51,52.29Z"/><path class="cls-6" d="M43.91,63c-2.79-2.26,2.85-9.23,5.65-7a5.7,5.7,0,0,1-.27,4.14C47.79,63,43.91,63,43.91,63Z"/><ellipse class="cls-4" cx="46.5" cy="59.04" rx="0.52" ry="2.75"/><path class="cls-2" d="M52.51,52.29l-3,3.69-7.67,5.83c-1.55-6,1.51-10.22,8.06-13.09Z"/><polygon class="cls-6" points="43.38 58.72 45.97 51.77 43.38 53.38 48.09 43.67 48.41 50.77 50.44 49.41 49.78 53.88 43.38 58.72"/><path class="cls-8" d="M43.17,71.4c-.32-.42-3.42,1.13-3.42,1.13s-1-5.18-.77-5.73a33.65,33.65,0,0,1,2.74-3.35l-.65-1.37c-1.45.12-5-1.49-5.14-2.92S34.07,57,34.06,56.94h0s-1.74.78-1.87,2.22-3.67,3-5.13,2.92l-.65,1.37a33.65,33.65,0,0,1,2.74,3.35c.19.54-.77,5.73-.77,5.73S25.28,71,25,71.4a36.38,36.38,0,0,0-1.14,7.47c.2.66,4.12,4.6,7.35,5.37a3.45,3.45,0,0,0,2.9,2h0a3.43,3.43,0,0,0,2.88-2c3.23-.77,7.17-4.72,7.35-5.37A35.68,35.68,0,0,0,43.17,71.4Z"/><path class="cls-4" d="M30.94,83.53s-1-8.19-4.19-5.58C26,78.54,25.78,81.57,30.94,83.53Z"/><path class="cls-7" d="M15.1,43.27A6.47,6.47,0,0,1,14.73,36,6.37,6.37,0,0,0,18,41.33S17.91,43.82,15.1,43.27Z"/><path class="cls-7" d="M18.22,48.69a4,4,0,0,1-.93-4.25,4,4,0,0,0,2.45,2.94S19.92,48.85,18.22,48.69Z"/><path class="cls-4" d="M37.22,83.53s1-8.19,4.19-5.58C42.12,78.54,42.37,81.57,37.22,83.53Z"/><path class="cls-7" d="M53,43.27A6.45,6.45,0,0,0,53.42,36a6.37,6.37,0,0,1-3.27,5.38S50.25,43.82,53,43.27Z"/><path class="cls-7" d="M49.94,48.69a4,4,0,0,0,.94-4.25,4,4,0,0,1-2.46,2.94S48.23,48.85,49.94,48.69Z"/><path class="cls-7" d="M37,29.1s-1.68-3.8-2.93-4.76h0c-1.23,1-2.91,4.76-2.91,4.76.41,4.77,2.91,5.8,2.91,5.81h0S36.59,33.86,37,29.1Z"/></g></g></g></svg>