<svg id="Layer_1" data-name="Layer 1" xmlns="http://www.w3.org/2000/svg" xmlns:xlink="http://www.w3.org/1999/xlink" viewBox="0 0 166.28 199.07"><defs><style>.cls-1{fill:url(#linear-gradient);}.cls-2{fill:url(#linear-gradient-2);}.cls-3{fill:url(#linear-gradient-3);}</style><linearGradient id="linear-gradient" x1="83.14" y1="-1.5" x2="83.14" y2="198.62" gradientUnits="userSpaceOnUse"><stop offset="0" stop-color="#ff9061"/><stop offset="1" stop-color="#fbc25f"/></linearGradient><linearGradient id="linear-gradient-2" x1="83.14" y1="10.59" x2="83.14" y2="229.1" gradientUnits="userSpaceOnUse"><stop offset="0" stop-color="#fbc25f"/><stop offset="1" stop-color="#ff9061"/></linearGradient><linearGradient id="linear-gradient-3" x1="77.71" y1="6.4" x2="86.92" y2="191.42" gradientUnits="userSpaceOnUse"><stop offset="0" stop-color="#445ab8"/><stop offset="1" stop-color="#2f355c"/></linearGradient></defs><path class="cls-1" d="M83.14,199.07c-27.39,0-49.51-8.85-64-25.6C6.63,158.94,0,138.9,0,115.52c0-26.19,8.69-55,23.25-77.07C39.61,13.65,60.88,0,83.14,0S126.68,13.65,143,38.45c14.56,22.07,23.25,50.88,23.25,77.07,0,23.38-6.63,43.42-19.17,58C132.65,190.22,110.53,199.07,83.14,199.07Z"/><path class="cls-2" d="M83.14,8c74.67,0,122.85,183.07,0,183.07S8.47,8,83.14,8Z"/><path class="cls-3" d="M97.22,60.89c25.26,3.35,20.13,63.76-2.24,78.89s-56.63-11.63-51.41-33.66C49,83.41,83.29,59.05,97.22,60.89Zm39,112.35c13-11.89,19.73-28.66,21.56-47C141,135.81,131.25,149.74,136.19,173.24ZM28.14,45.67c0,13.85,11.17,34.14,24,24.77,26.25-19.11,8.19-45.52-1.91-50.15C41.9,26.8,34.41,35.55,28.14,45.67ZM13,146.71c25.54-34.5,19.71-58.48,5-81C7.45,91.89,4.4,122.37,13,146.71ZM83.14,8a47.6,47.6,0,0,0-16.89,3.16c4,12.44,13.9,26.36,32.83,34.09,16.07,6.56,28.53.17,35.37-5.19C121.05,21,103,8,83.14,8ZM141.9,52.14c-10.05,13.51-28.08,63.57-14.59,75.47,6.62,5.85,23.82-10.93,30.86-17.2A138.2,138.2,0,0,0,141.9,52.14ZM88.29,191c9.3-19.43-22-39.15-41.33-44.24-11.79-3.1-22.19,5.88-28.1,12.66,11.23,18.87,31.76,31.7,64.28,31.7C84.89,191.07,86.6,191,88.29,191Zm23.92-41.21c-7,3-14.62,17.91-11,39.84a72.27,72.27,0,0,0,26.1-9.6C130,164.45,120.24,146.25,112.21,149.74Z"/></svg>