<svg width="144" height="196" viewBox="0 0 144 196" fill="none" xmlns="http://www.w3.org/2000/svg">
<g clip-path="url(#clip0_25_2)">
<rect width="144" height="196" fill="black"/>
<g clip-path="url(#clip1_25_2)">
<path d="M14.8438 168H9.67188C9.63021 168 9.60938 167.974 9.60938 167.922L9.625 156.945C9.625 156.893 9.65104 156.867 9.70312 156.867H11.4844C11.5365 156.867 11.5625 156.893 11.5625 156.945L11.5469 166.031H14.8438C14.8958 166.031 14.9219 166.057 14.9219 166.109V167.922C14.9219 167.974 14.8958 168 14.8438 168ZM17.8594 168H16.0469C15.9948 168 15.9688 167.974 15.9688 167.922L15.9844 156.93C15.9844 156.888 16.0052 156.867 16.0469 156.867H17.8438C17.8854 156.867 17.9062 156.888 17.9062 156.93L17.9219 167.922C17.9219 167.974 17.901 168 17.8594 168ZM21.2031 168H19.3906C19.349 168 19.3281 167.974 19.3281 167.922L19.3594 156.93C19.3594 156.888 19.3802 156.867 19.4219 156.867H21.375C21.4167 156.867 21.4531 156.888 21.4844 156.93L22.9453 159.039L24.3984 156.93C24.4297 156.888 24.4688 156.867 24.5156 156.867H26.4766C26.5234 156.867 26.5469 156.888 26.5469 156.93L26.5781 167.922C26.5781 167.974 26.5573 168 26.5156 168H24.7031C24.6615 168 24.6406 167.974 24.6406 167.922L24.625 159.758L22.9453 162.195L21.2812 159.758L21.2656 167.922C21.2656 167.974 21.2448 168 21.2031 168ZM30.8516 168H27.9844C27.9427 168 27.9219 167.974 27.9219 167.922L27.9531 156.93C27.9531 156.888 27.974 156.867 28.0156 156.867H31.0938C31.6927 156.867 32.237 157.013 32.7266 157.305C33.2057 157.596 33.5833 157.984 33.8594 158.469C34.1354 158.948 34.2734 159.469 34.2734 160.031C34.2734 160.49 34.1693 160.917 33.9609 161.312C33.7526 161.708 33.5052 162.029 33.2188 162.273C33.526 162.581 33.7656 162.938 33.9375 163.344C34.1094 163.75 34.1953 164.177 34.1953 164.625C34.1953 165.245 34.0469 165.81 33.75 166.32C33.4479 166.831 33.0443 167.24 32.5391 167.547C32.0339 167.849 31.4714 168 30.8516 168ZM31.0938 158.766H29.875V161.281H31.0938C31.4635 161.281 31.763 161.151 31.9922 160.891C32.2214 160.625 32.3359 160.339 32.3359 160.031C32.3359 159.693 32.2135 159.398 31.9688 159.148C31.724 158.893 31.4323 158.766 31.0938 158.766ZM30.8516 163.219H29.875L29.8594 166.047H30.8516C31.237 166.047 31.5677 165.906 31.8438 165.625C32.1198 165.344 32.2578 165.01 32.2578 164.625C32.2578 164.24 32.1198 163.909 31.8438 163.633C31.5677 163.357 31.237 163.219 30.8516 163.219ZM38.3047 168.156C37.737 168.156 37.2135 168.01 36.7344 167.719C36.2604 167.427 35.8776 167.039 35.5859 166.555C35.2995 166.065 35.1562 165.529 35.1562 164.945L35.1719 159.875C35.1719 159.281 35.3151 158.747 35.6016 158.273C35.8828 157.794 36.263 157.411 36.7422 157.125C37.2214 156.833 37.7422 156.688 38.3047 156.688C38.888 156.688 39.4115 156.831 39.875 157.117C40.3438 157.404 40.7188 157.789 41 158.273C41.2865 158.753 41.4297 159.286 41.4297 159.875L41.4453 164.945C41.4453 165.529 41.3047 166.062 41.0234 166.547C40.737 167.036 40.3568 167.427 39.8828 167.719C39.4089 168.01 38.8828 168.156 38.3047 168.156ZM38.3047 166.227C38.6276 166.227 38.9089 166.096 39.1484 165.836C39.388 165.57 39.5078 165.273 39.5078 164.945L39.4922 159.875C39.4922 159.521 39.3802 159.221 39.1562 158.977C38.9323 158.732 38.6484 158.609 38.3047 158.609C37.9766 158.609 37.6953 158.729 37.4609 158.969C37.2266 159.208 37.1094 159.51 37.1094 159.875V164.945C37.1094 165.294 37.2266 165.596 37.4609 165.852C37.6953 166.102 37.9766 166.227 38.3047 166.227Z" fill="white"/>
<path d="M11.46 178.06C11.1 178.06 10.786 177.996 10.518 177.868C10.25 177.74 10.028 177.568 9.852 177.352C9.676 177.132 9.544 176.888 9.456 176.62C9.372 176.348 9.33 176.07 9.33 175.786C9.33 175.502 9.372 175.224 9.456 174.952C9.544 174.68 9.676 174.436 9.852 174.22C10.032 174 10.256 173.826 10.524 173.698C10.796 173.566 11.114 173.5 11.478 173.5C11.758 173.5 11.998 173.536 12.198 173.608C12.402 173.68 12.572 173.772 12.708 173.884C12.844 173.996 12.954 174.116 13.038 174.244C13.122 174.368 13.186 174.486 13.23 174.598C13.274 174.71 13.302 174.802 13.314 174.874C13.33 174.946 13.338 174.982 13.338 174.982H12.744C12.744 174.982 12.736 174.95 12.72 174.886C12.704 174.822 12.672 174.744 12.624 174.652C12.576 174.556 12.504 174.462 12.408 174.37C12.316 174.274 12.194 174.194 12.042 174.13C11.894 174.066 11.708 174.034 11.484 174.034C11.22 174.034 10.99 174.084 10.794 174.184C10.598 174.284 10.436 174.418 10.308 174.586C10.18 174.75 10.084 174.936 10.02 175.144C9.956 175.348 9.924 175.558 9.924 175.774C9.924 175.994 9.956 176.21 10.02 176.422C10.084 176.63 10.18 176.818 10.308 176.986C10.44 177.15 10.602 177.282 10.794 177.382C10.986 177.478 11.208 177.526 11.46 177.526C11.872 177.526 12.198 177.406 12.438 177.166C12.682 176.922 12.814 176.594 12.834 176.182H11.514V175.696H13.398V176.002C13.398 176.458 13.31 176.838 13.134 177.142C12.962 177.446 12.73 177.676 12.438 177.832C12.146 177.984 11.82 178.06 11.46 178.06ZM15.5652 178.06C15.3052 178.06 15.0792 178.014 14.8872 177.922C14.6992 177.826 14.5432 177.698 14.4192 177.538C14.2992 177.378 14.2092 177.202 14.1492 177.01C14.0892 176.814 14.0592 176.614 14.0592 176.41C14.0592 176.21 14.0872 176.012 14.1432 175.816C14.2032 175.62 14.2932 175.442 14.4132 175.282C14.5372 175.122 14.6912 174.996 14.8752 174.904C15.0632 174.808 15.2852 174.76 15.5412 174.76C15.8132 174.76 16.0532 174.822 16.2612 174.946C16.4692 175.07 16.6332 175.254 16.7532 175.498C16.8732 175.742 16.9332 176.048 16.9332 176.416V176.584H14.6352C14.6472 176.764 14.6892 176.93 14.7612 177.082C14.8372 177.23 14.9432 177.35 15.0792 177.442C15.2152 177.53 15.3772 177.574 15.5652 177.574C15.7292 177.574 15.8612 177.548 15.9612 177.496C16.0652 177.44 16.1472 177.376 16.2072 177.304C16.2672 177.232 16.3072 177.17 16.3272 177.118C16.3512 177.062 16.3632 177.034 16.3632 177.034H16.8972C16.8972 177.034 16.8872 177.07 16.8672 177.142C16.8472 177.21 16.8112 177.294 16.7592 177.394C16.7072 177.494 16.6312 177.596 16.5312 177.7C16.4312 177.8 16.3032 177.886 16.1472 177.958C15.9912 178.026 15.7972 178.06 15.5652 178.06ZM14.6412 176.14H16.3752C16.3672 175.932 16.3232 175.764 16.2432 175.636C16.1632 175.504 16.0612 175.406 15.9372 175.342C15.8132 175.278 15.6812 175.246 15.5412 175.246C15.2892 175.246 15.0832 175.328 14.9232 175.492C14.7632 175.652 14.6692 175.868 14.6412 176.14ZM19.0024 178.06C18.6744 178.06 18.4264 177.976 18.2584 177.808C18.0944 177.64 18.0124 177.404 18.0124 177.1V175.288H17.4424V174.82H18.0124V174.022H18.5824V174.82H19.3564V175.288H18.5824V177.1C18.5824 177.26 18.6264 177.378 18.7144 177.454C18.8024 177.526 18.9304 177.562 19.0984 177.562C19.1864 177.562 19.2704 177.556 19.3504 177.544C19.4304 177.532 19.4704 177.526 19.4704 177.526V178.012C19.4704 178.012 19.4244 178.02 19.3324 178.036C19.2404 178.052 19.1304 178.06 19.0024 178.06ZM21.6616 178V173.56H23.2336C23.5496 173.56 23.8116 173.622 24.0196 173.746C24.2276 173.87 24.3836 174.03 24.4876 174.226C24.5916 174.422 24.6436 174.628 24.6436 174.844C24.6436 175.024 24.6076 175.198 24.5356 175.366C24.4636 175.534 24.3556 175.682 24.2116 175.81C24.0716 175.934 23.8936 176.024 23.6776 176.08L24.7996 178H24.1336L23.0596 176.134H22.2496V178H21.6616ZM23.2276 174.076H22.2496V175.63H23.2276C23.4116 175.63 23.5636 175.592 23.6836 175.516C23.8036 175.44 23.8936 175.344 23.9536 175.228C24.0136 175.108 24.0436 174.984 24.0436 174.856C24.0436 174.724 24.0136 174.6 23.9536 174.484C23.8936 174.364 23.8036 174.266 23.6836 174.19C23.5636 174.114 23.4116 174.076 23.2276 174.076ZM26.6906 174.76C26.8906 174.76 27.0586 174.792 27.1946 174.856C27.3306 174.92 27.4406 174.996 27.5246 175.084C27.6086 175.168 27.6726 175.248 27.7166 175.324H27.7526V174.82H28.3226V178H27.7526V177.496H27.7166C27.6726 177.572 27.6086 177.654 27.5246 177.742C27.4406 177.83 27.3306 177.906 27.1946 177.97C27.0586 178.03 26.8906 178.06 26.6906 178.06C26.4506 178.06 26.2406 178.014 26.0606 177.922C25.8806 177.826 25.7306 177.7 25.6106 177.544C25.4906 177.384 25.4006 177.206 25.3406 177.01C25.2806 176.814 25.2506 176.614 25.2506 176.41C25.2506 176.206 25.2806 176.006 25.3406 175.81C25.4006 175.614 25.4906 175.438 25.6106 175.282C25.7306 175.122 25.8806 174.996 26.0606 174.904C26.2406 174.808 26.4506 174.76 26.6906 174.76ZM26.7866 175.246C26.5746 175.246 26.3966 175.304 26.2526 175.42C26.1086 175.532 26.0006 175.676 25.9286 175.852C25.8606 176.028 25.8266 176.214 25.8266 176.41C25.8266 176.602 25.8606 176.788 25.9286 176.968C26.0006 177.144 26.1086 177.29 26.2526 177.406C26.3966 177.518 26.5746 177.574 26.7866 177.574C26.9986 177.574 27.1746 177.518 27.3146 177.406C27.4586 177.29 27.5646 177.144 27.6326 176.968C27.7046 176.788 27.7406 176.602 27.7406 176.41C27.7406 176.214 27.7046 176.028 27.6326 175.852C27.5646 175.676 27.4586 175.532 27.3146 175.42C27.1746 175.304 26.9986 175.246 26.7866 175.246ZM29.1602 178V174.82H29.7302V175.282H29.7662C29.7942 175.234 29.8402 175.168 29.9042 175.084C29.9722 175 30.0682 174.926 30.1922 174.862C30.3162 174.794 30.4722 174.76 30.6602 174.76C30.8922 174.76 31.0902 174.814 31.2542 174.922C31.4182 175.026 31.5422 175.168 31.6262 175.348C31.7142 175.528 31.7582 175.73 31.7582 175.954V178H31.1882V175.99C31.1882 175.778 31.1282 175.602 31.0082 175.462C30.8922 175.322 30.7222 175.252 30.4982 175.252C30.3182 175.252 30.1722 175.298 30.0602 175.39C29.9482 175.478 29.8642 175.596 29.8082 175.744C29.7562 175.888 29.7302 176.042 29.7302 176.206V178H29.1602ZM33.9797 178.06C33.7397 178.06 33.5297 178.014 33.3497 177.922C33.1697 177.826 33.0197 177.7 32.8997 177.544C32.7797 177.384 32.6897 177.206 32.6297 177.01C32.5697 176.814 32.5397 176.614 32.5397 176.41C32.5397 176.206 32.5697 176.006 32.6297 175.81C32.6897 175.614 32.7797 175.438 32.8997 175.282C33.0197 175.122 33.1697 174.996 33.3497 174.904C33.5297 174.808 33.7397 174.76 33.9797 174.76C34.1797 174.76 34.3477 174.792 34.4837 174.856C34.6197 174.92 34.7297 174.996 34.8137 175.084C34.8977 175.168 34.9617 175.248 35.0057 175.324H35.0417V173.44H35.6117V178H35.0417V177.496H35.0057C34.9617 177.572 34.8977 177.654 34.8137 177.742C34.7297 177.83 34.6197 177.906 34.4837 177.97C34.3477 178.03 34.1797 178.06 33.9797 178.06ZM34.0757 177.574C34.2877 177.574 34.4637 177.518 34.6037 177.406C34.7477 177.29 34.8537 177.144 34.9217 176.968C34.9937 176.788 35.0297 176.602 35.0297 176.41C35.0297 176.214 34.9937 176.028 34.9217 175.852C34.8537 175.676 34.7477 175.532 34.6037 175.42C34.4637 175.304 34.2877 175.246 34.0757 175.246C33.8637 175.246 33.6857 175.304 33.5417 175.42C33.3977 175.532 33.2897 175.676 33.2177 175.852C33.1497 176.028 33.1157 176.214 33.1157 176.41C33.1157 176.602 33.1497 176.788 33.2177 176.968C33.2897 177.144 33.3977 177.29 33.5417 177.406C33.6857 177.518 33.8637 177.574 34.0757 177.574ZM38.0198 178.06C37.6798 178.06 37.3938 177.982 37.1618 177.826C36.9298 177.666 36.7538 177.46 36.6338 177.208C36.5138 176.956 36.4538 176.69 36.4538 176.41C36.4538 176.126 36.5138 175.86 36.6338 175.612C36.7538 175.36 36.9298 175.156 37.1618 175C37.3938 174.84 37.6798 174.76 38.0198 174.76C38.3598 174.76 38.6458 174.84 38.8778 175C39.1098 175.156 39.2858 175.36 39.4058 175.612C39.5258 175.86 39.5858 176.126 39.5858 176.41C39.5858 176.69 39.5258 176.956 39.4058 177.208C39.2858 177.46 39.1098 177.666 38.8778 177.826C38.6458 177.982 38.3598 178.06 38.0198 178.06ZM38.0198 177.562C38.2358 177.562 38.4158 177.508 38.5598 177.4C38.7078 177.288 38.8178 177.144 38.8898 176.968C38.9658 176.792 39.0038 176.606 39.0038 176.41C39.0038 176.21 38.9658 176.024 38.8898 175.852C38.8178 175.676 38.7078 175.534 38.5598 175.426C38.4158 175.314 38.2358 175.258 38.0198 175.258C37.8078 175.258 37.6278 175.314 37.4798 175.426C37.3318 175.534 37.2198 175.676 37.1438 175.852C37.0718 176.024 37.0358 176.21 37.0358 176.41C37.0358 176.606 37.0718 176.792 37.1438 176.968C37.2198 177.144 37.3318 177.288 37.4798 177.4C37.6278 177.508 37.8078 177.562 38.0198 177.562ZM40.3634 178V174.82H40.9334V175.282H40.9574C40.9894 175.222 41.0394 175.152 41.1074 175.072C41.1754 174.988 41.2674 174.916 41.3834 174.856C41.5034 174.792 41.6534 174.76 41.8334 174.76C42.0694 174.76 42.2674 174.818 42.4274 174.934C42.5914 175.046 42.7134 175.198 42.7934 175.39H42.7994C42.8874 175.214 43.0114 175.066 43.1714 174.946C43.3354 174.822 43.5474 174.76 43.8074 174.76C44.1514 174.76 44.4154 174.878 44.5994 175.114C44.7874 175.346 44.8814 175.646 44.8814 176.014V178H44.3114V176.044C44.3114 175.808 44.2554 175.618 44.1434 175.474C44.0314 175.326 43.8694 175.252 43.6574 175.252C43.4734 175.252 43.3254 175.302 43.2134 175.402C43.1054 175.502 43.0274 175.626 42.9794 175.774C42.9314 175.922 42.9074 176.07 42.9074 176.218V178H42.3374V176.044C42.3374 175.808 42.2814 175.618 42.1694 175.474C42.0614 175.326 41.8994 175.252 41.6834 175.252C41.4994 175.252 41.3514 175.302 41.2394 175.402C41.1314 175.502 41.0534 175.628 41.0054 175.78C40.9574 175.928 40.9334 176.074 40.9334 176.218V178H40.3634ZM47.1616 178V173.56H47.6896L50.0056 176.938V173.56H50.5936V178H50.0656L47.7496 174.628V178H47.1616ZM52.5342 178.06C52.2182 178.06 51.9662 177.962 51.7782 177.766C51.5902 177.57 51.4962 177.298 51.4962 176.95V174.82H52.0662V176.92C52.0662 177.128 52.1222 177.288 52.2342 177.4C52.3502 177.512 52.5022 177.568 52.6902 177.568C52.8822 177.568 53.0362 177.518 53.1522 177.418C53.2682 177.318 53.3522 177.19 53.4042 177.034C53.4562 176.878 53.4822 176.718 53.4822 176.554V174.82H54.0522V178H53.4822V177.544H53.4462C53.4222 177.592 53.3762 177.658 53.3082 177.742C53.2402 177.822 53.1442 177.896 53.0202 177.964C52.8962 178.028 52.7342 178.06 52.5342 178.06ZM54.8946 178V174.82H55.4646V175.282H55.4886C55.5206 175.222 55.5706 175.152 55.6386 175.072C55.7066 174.988 55.7986 174.916 55.9146 174.856C56.0346 174.792 56.1846 174.76 56.3646 174.76C56.6006 174.76 56.7986 174.818 56.9586 174.934C57.1226 175.046 57.2446 175.198 57.3246 175.39H57.3306C57.4186 175.214 57.5426 175.066 57.7026 174.946C57.8666 174.822 58.0786 174.76 58.3386 174.76C58.6826 174.76 58.9466 174.878 59.1306 175.114C59.3186 175.346 59.4126 175.646 59.4126 176.014V178H58.8426V176.044C58.8426 175.808 58.7866 175.618 58.6746 175.474C58.5626 175.326 58.4006 175.252 58.1886 175.252C58.0046 175.252 57.8566 175.302 57.7446 175.402C57.6366 175.502 57.5586 175.626 57.5106 175.774C57.4626 175.922 57.4386 176.07 57.4386 176.218V178H56.8686V176.044C56.8686 175.808 56.8126 175.618 56.7006 175.474C56.5926 175.326 56.4306 175.252 56.2146 175.252C56.0306 175.252 55.8826 175.302 55.7706 175.402C55.6626 175.502 55.5846 175.628 55.5366 175.78C55.4886 175.928 55.4646 176.074 55.4646 176.218V178H54.8946ZM61.9421 178.06C61.7421 178.06 61.5741 178.028 61.4381 177.964C61.3021 177.9 61.1921 177.824 61.1081 177.736C61.0281 177.648 60.9641 177.568 60.9161 177.496H60.8801V178H60.3101V173.44H60.8801V175.324H60.9161C60.9641 175.248 61.0281 175.166 61.1081 175.078C61.1921 174.99 61.3021 174.916 61.4381 174.856C61.5741 174.792 61.7421 174.76 61.9421 174.76C62.1821 174.76 62.3921 174.808 62.5721 174.904C62.7521 174.996 62.9021 175.122 63.0221 175.282C63.1421 175.438 63.2321 175.614 63.2921 175.81C63.3521 176.006 63.3821 176.206 63.3821 176.41C63.3821 176.614 63.3521 176.814 63.2921 177.01C63.2321 177.206 63.1421 177.384 63.0221 177.544C62.9021 177.7 62.7521 177.826 62.5721 177.922C62.3921 178.014 62.1821 178.06 61.9421 178.06ZM61.8461 177.574C62.0621 177.574 62.2401 177.518 62.3801 177.406C62.5241 177.29 62.6301 177.144 62.6981 176.968C62.7701 176.788 62.8061 176.602 62.8061 176.41C62.8061 176.214 62.7701 176.028 62.6981 175.852C62.6301 175.676 62.5241 175.532 62.3801 175.42C62.2401 175.304 62.0621 175.246 61.8461 175.246C61.6341 175.246 61.4561 175.304 61.3121 175.42C61.1721 175.532 61.0661 175.676 60.9941 175.852C60.9261 176.028 60.8921 176.214 60.8921 176.41C60.8921 176.602 60.9261 176.788 60.9941 176.968C61.0661 177.144 61.1721 177.29 61.3121 177.406C61.4561 177.518 61.6341 177.574 61.8461 177.574ZM65.5808 178.06C65.3208 178.06 65.0948 178.014 64.9028 177.922C64.7148 177.826 64.5588 177.698 64.4348 177.538C64.3148 177.378 64.2248 177.202 64.1648 177.01C64.1048 176.814 64.0748 176.614 64.0748 176.41C64.0748 176.21 64.1028 176.012 64.1588 175.816C64.2188 175.62 64.3088 175.442 64.4288 175.282C64.5528 175.122 64.7068 174.996 64.8908 174.904C65.0788 174.808 65.3008 174.76 65.5568 174.76C65.8288 174.76 66.0688 174.822 66.2768 174.946C66.4848 175.07 66.6488 175.254 66.7688 175.498C66.8888 175.742 66.9488 176.048 66.9488 176.416V176.584H64.6508C64.6628 176.764 64.7048 176.93 64.7768 177.082C64.8528 177.23 64.9588 177.35 65.0948 177.442C65.2308 177.53 65.3928 177.574 65.5808 177.574C65.7448 177.574 65.8768 177.548 65.9768 177.496C66.0808 177.44 66.1628 177.376 66.2228 177.304C66.2828 177.232 66.3228 177.17 66.3428 177.118C66.3668 177.062 66.3788 177.034 66.3788 177.034H66.9128C66.9128 177.034 66.9028 177.07 66.8828 177.142C66.8628 177.21 66.8268 177.294 66.7748 177.394C66.7228 177.494 66.6468 177.596 66.5468 177.7C66.4468 177.8 66.3188 177.886 66.1628 177.958C66.0068 178.026 65.8128 178.06 65.5808 178.06ZM64.6568 176.14H66.3908C66.3828 175.932 66.3388 175.764 66.2588 175.636C66.1788 175.504 66.0768 175.406 65.9528 175.342C65.8288 175.278 65.6968 175.246 65.5568 175.246C65.3048 175.246 65.0988 175.328 64.9388 175.492C64.7788 175.652 64.6848 175.868 64.6568 176.14ZM67.7266 178V174.82H68.2966V175.216H68.3206C68.3886 175.096 68.4886 174.99 68.6206 174.898C68.7526 174.806 68.9386 174.76 69.1786 174.76C69.2466 174.76 69.3086 174.764 69.3646 174.772C69.4206 174.776 69.4486 174.778 69.4486 174.778V175.324C69.4486 175.324 69.4166 175.322 69.3526 175.318C69.2926 175.31 69.2286 175.306 69.1606 175.306C68.8846 175.306 68.6706 175.386 68.5186 175.546C68.3706 175.702 68.2966 175.958 68.2966 176.314V178H67.7266ZM72.8091 178.06C72.4811 178.06 72.2331 177.976 72.0651 177.808C71.9011 177.64 71.8191 177.404 71.8191 177.1V175.288H71.2491V174.82H71.8191V174.022H72.3891V174.82H73.1631V175.288H72.3891V177.1C72.3891 177.26 72.4331 177.378 72.5211 177.454C72.6091 177.526 72.7371 177.562 72.9051 177.562C72.9931 177.562 73.0771 177.556 73.1571 177.544C73.2371 177.532 73.2771 177.526 73.2771 177.526V178.012C73.2771 178.012 73.2311 178.02 73.1391 178.036C73.0471 178.052 72.9371 178.06 72.8091 178.06ZM75.4143 178.06C75.0743 178.06 74.7883 177.982 74.5563 177.826C74.3243 177.666 74.1483 177.46 74.0283 177.208C73.9083 176.956 73.8483 176.69 73.8483 176.41C73.8483 176.126 73.9083 175.86 74.0283 175.612C74.1483 175.36 74.3243 175.156 74.5563 175C74.7883 174.84 75.0743 174.76 75.4143 174.76C75.7543 174.76 76.0403 174.84 76.2723 175C76.5043 175.156 76.6803 175.36 76.8003 175.612C76.9203 175.86 76.9803 176.126 76.9803 176.41C76.9803 176.69 76.9203 176.956 76.8003 177.208C76.6803 177.46 76.5043 177.666 76.2723 177.826C76.0403 177.982 75.7543 178.06 75.4143 178.06ZM75.4143 177.562C75.6303 177.562 75.8103 177.508 75.9543 177.4C76.1023 177.288 76.2123 177.144 76.2843 176.968C76.3603 176.792 76.3983 176.606 76.3983 176.41C76.3983 176.21 76.3603 176.024 76.2843 175.852C76.2123 175.676 76.1023 175.534 75.9543 175.426C75.8103 175.314 75.6303 175.258 75.4143 175.258C75.2023 175.258 75.0223 175.314 74.8743 175.426C74.7263 175.534 74.6143 175.676 74.5383 175.852C74.4663 176.024 74.4303 176.21 74.4303 176.41C74.4303 176.606 74.4663 176.792 74.5383 176.968C74.6143 177.144 74.7263 177.288 74.8743 177.4C75.0223 177.508 75.2023 177.562 75.4143 177.562ZM80.6707 179.26C80.4067 179.26 80.1867 179.224 80.0107 179.152C79.8347 179.084 79.6927 178.996 79.5847 178.888C79.4807 178.784 79.4027 178.68 79.3507 178.576C79.2987 178.472 79.2647 178.384 79.2487 178.312C79.2327 178.244 79.2247 178.21 79.2247 178.21H79.7947C79.7947 178.21 79.8047 178.238 79.8247 178.294C79.8447 178.35 79.8827 178.414 79.9387 178.486C79.9987 178.558 80.0867 178.622 80.2027 178.678C80.3187 178.734 80.4747 178.762 80.6707 178.762C80.9027 178.762 81.0847 178.716 81.2167 178.624C81.3487 178.536 81.4427 178.42 81.4987 178.276C81.5587 178.132 81.5887 177.98 81.5887 177.82V177.454H81.5587C81.5187 177.522 81.4547 177.6 81.3667 177.688C81.2827 177.772 81.1707 177.846 81.0307 177.91C80.8907 177.97 80.7187 178 80.5147 178C80.2747 178 80.0647 177.954 79.8847 177.862C79.7047 177.77 79.5547 177.646 79.4347 177.49C79.3187 177.334 79.2307 177.16 79.1707 176.968C79.1107 176.776 79.0807 176.58 79.0807 176.38C79.0807 176.18 79.1107 175.984 79.1707 175.792C79.2307 175.6 79.3187 175.426 79.4347 175.27C79.5547 175.114 79.7047 174.99 79.8847 174.898C80.0647 174.806 80.2747 174.76 80.5147 174.76C80.7187 174.76 80.8907 174.792 81.0307 174.856C81.1707 174.916 81.2827 174.988 81.3667 175.072C81.4547 175.156 81.5187 175.234 81.5587 175.306H81.5887V174.82H82.1587V177.814C82.1587 178.258 82.0287 178.61 81.7687 178.87C81.5127 179.13 81.1467 179.26 80.6707 179.26ZM80.6227 177.514C80.8347 177.514 81.0107 177.46 81.1507 177.352C81.2947 177.24 81.4007 177.098 81.4687 176.926C81.5407 176.754 81.5767 176.572 81.5767 176.38C81.5767 176.188 81.5407 176.006 81.4687 175.834C81.4007 175.658 81.2947 175.516 81.1507 175.408C81.0107 175.3 80.8347 175.246 80.6227 175.246C80.4107 175.246 80.2327 175.3 80.0887 175.408C79.9447 175.516 79.8367 175.658 79.7647 175.834C79.6967 176.006 79.6627 176.188 79.6627 176.38C79.6627 176.572 79.6967 176.754 79.7647 176.926C79.8367 177.098 79.9447 177.24 80.0887 177.352C80.2327 177.46 80.4107 177.514 80.6227 177.514ZM84.325 178.06C84.065 178.06 83.839 178.014 83.647 177.922C83.459 177.826 83.303 177.698 83.179 177.538C83.059 177.378 82.969 177.202 82.909 177.01C82.849 176.814 82.819 176.614 82.819 176.41C82.819 176.21 82.847 176.012 82.903 175.816C82.963 175.62 83.053 175.442 83.173 175.282C83.297 175.122 83.451 174.996 83.635 174.904C83.823 174.808 84.045 174.76 84.301 174.76C84.573 174.76 84.813 174.822 85.021 174.946C85.229 175.07 85.393 175.254 85.513 175.498C85.633 175.742 85.693 176.048 85.693 176.416V176.584H83.395C83.407 176.764 83.449 176.93 83.521 177.082C83.597 177.23 83.703 177.35 83.839 177.442C83.975 177.53 84.137 177.574 84.325 177.574C84.489 177.574 84.621 177.548 84.721 177.496C84.825 177.44 84.907 177.376 84.967 177.304C85.027 177.232 85.067 177.17 85.087 177.118C85.111 177.062 85.123 177.034 85.123 177.034H85.657C85.657 177.034 85.647 177.07 85.627 177.142C85.607 177.21 85.571 177.294 85.519 177.394C85.467 177.494 85.391 177.596 85.291 177.7C85.191 177.8 85.063 177.886 84.907 177.958C84.751 178.026 84.557 178.06 84.325 178.06ZM83.401 176.14H85.135C85.127 175.932 85.083 175.764 85.003 175.636C84.923 175.504 84.821 175.406 84.697 175.342C84.573 175.278 84.441 175.246 84.301 175.246C84.049 175.246 83.843 175.328 83.683 175.492C83.523 175.652 83.429 175.868 83.401 176.14ZM87.7622 178.06C87.4342 178.06 87.1862 177.976 87.0182 177.808C86.8542 177.64 86.7722 177.404 86.7722 177.1V175.288H86.2022V174.82H86.7722V174.022H87.3422V174.82H88.1162V175.288H87.3422V177.1C87.3422 177.26 87.3862 177.378 87.4742 177.454C87.5622 177.526 87.6902 177.562 87.8582 177.562C87.9462 177.562 88.0302 177.556 88.1102 177.544C88.1902 177.532 88.2302 177.526 88.2302 177.526V178.012C88.2302 178.012 88.1842 178.02 88.0922 178.036C88.0002 178.052 87.8902 178.06 87.7622 178.06ZM90.3614 178V174.82H90.9314V175.282H90.9554C90.9874 175.222 91.0374 175.152 91.1054 175.072C91.1734 174.988 91.2654 174.916 91.3814 174.856C91.5014 174.792 91.6514 174.76 91.8314 174.76C92.0674 174.76 92.2654 174.818 92.4254 174.934C92.5894 175.046 92.7114 175.198 92.7914 175.39H92.7974C92.8854 175.214 93.0094 175.066 93.1694 174.946C93.3334 174.822 93.5454 174.76 93.8054 174.76C94.1494 174.76 94.4134 174.878 94.5974 175.114C94.7854 175.346 94.8794 175.646 94.8794 176.014V178H94.3094V176.044C94.3094 175.808 94.2534 175.618 94.1414 175.474C94.0294 175.326 93.8674 175.252 93.6554 175.252C93.4714 175.252 93.3234 175.302 93.2114 175.402C93.1034 175.502 93.0254 175.626 92.9774 175.774C92.9294 175.922 92.9054 176.07 92.9054 176.218V178H92.3354V176.044C92.3354 175.808 92.2794 175.618 92.1674 175.474C92.0594 175.326 91.8974 175.252 91.6814 175.252C91.4974 175.252 91.3494 175.302 91.2374 175.402C91.1294 175.502 91.0514 175.628 91.0034 175.78C90.9554 175.928 90.9314 176.074 90.9314 176.218V178H90.3614ZM96.7549 178.06C96.4389 178.06 96.1869 177.962 95.9989 177.766C95.8109 177.57 95.7169 177.298 95.7169 176.95V174.82H96.2869V176.92C96.2869 177.128 96.3429 177.288 96.4549 177.4C96.5709 177.512 96.7229 177.568 96.9109 177.568C97.1029 177.568 97.2569 177.518 97.3729 177.418C97.4889 177.318 97.5729 177.19 97.6249 177.034C97.6769 176.878 97.7029 176.718 97.7029 176.554V174.82H98.2729V178H97.7029V177.544H97.6669C97.6429 177.592 97.5969 177.658 97.5289 177.742C97.4609 177.822 97.3649 177.896 97.2409 177.964C97.1169 178.028 96.9549 178.06 96.7549 178.06ZM99.1753 178L99.1813 173.44H99.7453V178H99.1753ZM101.995 178.06C101.667 178.06 101.419 177.976 101.251 177.808C101.087 177.64 101.005 177.404 101.005 177.1V175.288H100.435V174.82H101.005V174.022H101.575V174.82H102.349V175.288H101.575V177.1C101.575 177.26 101.619 177.378 101.707 177.454C101.795 177.526 101.923 177.562 102.091 177.562C102.179 177.562 102.263 177.556 102.343 177.544C102.423 177.532 102.463 177.526 102.463 177.526V178.012C102.463 178.012 102.417 178.02 102.325 178.036C102.233 178.052 102.123 178.06 101.995 178.06ZM103.583 174.214C103.475 174.214 103.385 174.178 103.313 174.106C103.245 174.034 103.211 173.948 103.211 173.848C103.211 173.744 103.245 173.656 103.313 173.584C103.385 173.512 103.475 173.476 103.583 173.476C103.687 173.476 103.775 173.512 103.847 173.584C103.919 173.656 103.955 173.744 103.955 173.848C103.955 173.948 103.919 174.034 103.847 174.106C103.775 174.178 103.687 174.214 103.583 174.214ZM103.301 178V174.82H103.871V178H103.301ZM104.853 179.176V174.82H105.423V175.324H105.459C105.507 175.248 105.571 175.166 105.651 175.078C105.735 174.99 105.845 174.916 105.981 174.856C106.117 174.792 106.285 174.76 106.485 174.76C106.725 174.76 106.935 174.808 107.115 174.904C107.295 174.996 107.445 175.122 107.565 175.282C107.685 175.438 107.775 175.614 107.835 175.81C107.895 176.006 107.925 176.206 107.925 176.41C107.925 176.614 107.895 176.814 107.835 177.01C107.775 177.206 107.685 177.384 107.565 177.544C107.445 177.7 107.295 177.826 107.115 177.922C106.935 178.014 106.725 178.06 106.485 178.06C106.285 178.06 106.117 178.028 105.981 177.964C105.845 177.9 105.735 177.824 105.651 177.736C105.571 177.648 105.507 177.568 105.459 177.496H105.423V179.176H104.853ZM105.435 176.41C105.435 176.602 105.469 176.788 105.537 176.968C105.609 177.144 105.715 177.29 105.855 177.406C105.999 177.518 106.177 177.574 106.389 177.574C106.605 177.574 106.783 177.518 106.923 177.406C107.067 177.29 107.173 177.144 107.241 176.968C107.313 176.788 107.349 176.602 107.349 176.41C107.349 176.214 107.313 176.028 107.241 175.852C107.173 175.676 107.067 175.532 106.923 175.42C106.783 175.304 106.605 175.246 106.389 175.246C106.177 175.246 105.999 175.304 105.855 175.42C105.715 175.532 105.609 175.676 105.537 175.852C105.469 176.028 105.435 176.214 105.435 176.41ZM108.767 178L108.773 173.44H109.337V178H108.767ZM111.682 178.06C111.422 178.06 111.196 178.014 111.004 177.922C110.816 177.826 110.66 177.698 110.536 177.538C110.416 177.378 110.326 177.202 110.266 177.01C110.206 176.814 110.176 176.614 110.176 176.41C110.176 176.21 110.204 176.012 110.26 175.816C110.32 175.62 110.41 175.442 110.53 175.282C110.654 175.122 110.808 174.996 110.992 174.904C111.18 174.808 111.402 174.76 111.658 174.76C111.93 174.76 112.17 174.822 112.378 174.946C112.586 175.07 112.75 175.254 112.87 175.498C112.99 175.742 113.05 176.048 113.05 176.416V176.584H110.752C110.764 176.764 110.806 176.93 110.878 177.082C110.954 177.23 111.06 177.35 111.196 177.442C111.332 177.53 111.494 177.574 111.682 177.574C111.846 177.574 111.978 177.548 112.078 177.496C112.182 177.44 112.264 177.376 112.324 177.304C112.384 177.232 112.424 177.17 112.444 177.118C112.468 177.062 112.48 177.034 112.48 177.034H113.014C113.014 177.034 113.004 177.07 112.984 177.142C112.964 177.21 112.928 177.294 112.876 177.394C112.824 177.494 112.748 177.596 112.648 177.7C112.548 177.8 112.42 177.886 112.264 177.958C112.108 178.026 111.914 178.06 111.682 178.06ZM110.758 176.14H112.492C112.484 175.932 112.44 175.764 112.36 175.636C112.28 175.504 112.178 175.406 112.054 175.342C111.93 175.278 111.798 175.246 111.658 175.246C111.406 175.246 111.2 175.328 111.04 175.492C110.88 175.652 110.786 175.868 110.758 176.14ZM116.717 178.06C116.377 178.06 116.091 177.982 115.859 177.826C115.627 177.666 115.451 177.46 115.331 177.208C115.211 176.956 115.151 176.69 115.151 176.41C115.151 176.126 115.211 175.86 115.331 175.612C115.451 175.36 115.627 175.156 115.859 175C116.091 174.84 116.377 174.76 116.717 174.76C117.057 174.76 117.343 174.84 117.575 175C117.807 175.156 117.983 175.36 118.103 175.612C118.223 175.86 118.283 176.126 118.283 176.41C118.283 176.69 118.223 176.956 118.103 177.208C117.983 177.46 117.807 177.666 117.575 177.826C117.343 177.982 117.057 178.06 116.717 178.06ZM116.717 177.562C116.933 177.562 117.113 177.508 117.257 177.4C117.405 177.288 117.515 177.144 117.587 176.968C117.663 176.792 117.701 176.606 117.701 176.41C117.701 176.21 117.663 176.024 117.587 175.852C117.515 175.676 117.405 175.534 117.257 175.426C117.113 175.314 116.933 175.258 116.717 175.258C116.505 175.258 116.325 175.314 116.177 175.426C116.029 175.534 115.917 175.676 115.841 175.852C115.769 176.024 115.733 176.21 115.733 176.41C115.733 176.606 115.769 176.792 115.841 176.968C115.917 177.144 116.029 177.288 116.177 177.4C116.325 177.508 116.505 177.562 116.717 177.562ZM119.433 178V175.288H118.911V174.82H119.433V174.43C119.433 174.262 119.463 174.098 119.523 173.938C119.583 173.774 119.683 173.64 119.823 173.536C119.963 173.432 120.153 173.38 120.393 173.38C120.509 173.38 120.601 173.39 120.669 173.41C120.741 173.426 120.777 173.434 120.777 173.434V173.884C120.777 173.884 120.745 173.878 120.681 173.866C120.621 173.85 120.551 173.842 120.471 173.842C120.287 173.842 120.163 173.898 120.099 174.01C120.035 174.122 120.003 174.262 120.003 174.43V174.82H120.741V175.288H120.003V178H119.433ZM124.108 178.06C123.78 178.06 123.532 177.976 123.364 177.808C123.2 177.64 123.118 177.404 123.118 177.1V175.288H122.548V174.82H123.118V174.022H123.688V174.82H124.462V175.288H123.688V177.1C123.688 177.26 123.732 177.378 123.82 177.454C123.908 177.526 124.036 177.562 124.204 177.562C124.292 177.562 124.376 177.556 124.456 177.544C124.536 177.532 124.576 177.526 124.576 177.526V178.012C124.576 178.012 124.53 178.02 124.438 178.036C124.346 178.052 124.236 178.06 124.108 178.06ZM125.384 178V173.44H125.954V175.282H125.99C126.018 175.234 126.064 175.168 126.128 175.084C126.196 175 126.292 174.926 126.416 174.862C126.54 174.794 126.696 174.76 126.884 174.76C127.116 174.76 127.314 174.814 127.478 174.922C127.642 175.026 127.766 175.168 127.85 175.348C127.938 175.528 127.982 175.73 127.982 175.954V178H127.412V175.99C127.412 175.778 127.352 175.602 127.232 175.462C127.116 175.322 126.946 175.252 126.722 175.252C126.542 175.252 126.396 175.298 126.284 175.39C126.172 175.478 126.088 175.596 126.032 175.744C125.98 175.888 125.954 176.042 125.954 176.206V178H125.384ZM130.202 174.76C130.402 174.76 130.57 174.792 130.706 174.856C130.842 174.92 130.952 174.996 131.036 175.084C131.12 175.168 131.184 175.248 131.228 175.324H131.264V174.82H131.834V178H131.264V177.496H131.228C131.184 177.572 131.12 177.654 131.036 177.742C130.952 177.83 130.842 177.906 130.706 177.97C130.57 178.03 130.402 178.06 130.202 178.06C129.962 178.06 129.752 178.014 129.572 177.922C129.392 177.826 129.242 177.7 129.122 177.544C129.002 177.384 128.912 177.206 128.852 177.01C128.792 176.814 128.762 176.614 128.762 176.41C128.762 176.206 128.792 176.006 128.852 175.81C128.912 175.614 129.002 175.438 129.122 175.282C129.242 175.122 129.392 174.996 129.572 174.904C129.752 174.808 129.962 174.76 130.202 174.76ZM130.298 175.246C130.086 175.246 129.908 175.304 129.764 175.42C129.62 175.532 129.512 175.676 129.44 175.852C129.372 176.028 129.338 176.214 129.338 176.41C129.338 176.602 129.372 176.788 129.44 176.968C129.512 177.144 129.62 177.29 129.764 177.406C129.908 177.518 130.086 177.574 130.298 177.574C130.51 177.574 130.686 177.518 130.826 177.406C130.97 177.29 131.076 177.144 131.144 176.968C131.216 176.788 131.252 176.602 131.252 176.41C131.252 176.214 131.216 176.028 131.144 175.852C131.076 175.676 130.97 175.532 130.826 175.42C130.686 175.304 130.51 175.246 130.298 175.246ZM133.905 178.06C133.577 178.06 133.329 177.976 133.161 177.808C132.997 177.64 132.915 177.404 132.915 177.1V175.288H132.345V174.82H132.915V174.022H133.485V174.82H134.259V175.288H133.485V177.1C133.485 177.26 133.529 177.378 133.617 177.454C133.705 177.526 133.833 177.562 134.001 177.562C134.089 177.562 134.173 177.556 134.253 177.544C134.333 177.532 134.373 177.526 134.373 177.526V178.012C134.373 178.012 134.327 178.02 134.235 178.036C134.143 178.052 134.033 178.06 133.905 178.06ZM9.42 186V182.82H9.99V183.282H10.026C10.054 183.234 10.1 183.168 10.164 183.084C10.232 183 10.328 182.926 10.452 182.862C10.576 182.794 10.732 182.76 10.92 182.76C11.152 182.76 11.35 182.814 11.514 182.922C11.678 183.026 11.802 183.168 11.886 183.348C11.974 183.528 12.018 183.73 12.018 183.954V186H11.448V183.99C11.448 183.778 11.388 183.602 11.268 183.462C11.152 183.322 10.982 183.252 10.758 183.252C10.578 183.252 10.432 183.298 10.32 183.39C10.208 183.478 10.124 183.596 10.068 183.744C10.016 183.888 9.99 184.042 9.99 184.206V186H9.42ZM13.8975 186.06C13.5815 186.06 13.3295 185.962 13.1415 185.766C12.9535 185.57 12.8595 185.298 12.8595 184.95V182.82H13.4295V184.92C13.4295 185.128 13.4855 185.288 13.5975 185.4C13.7135 185.512 13.8655 185.568 14.0535 185.568C14.2455 185.568 14.3995 185.518 14.5155 185.418C14.6315 185.318 14.7155 185.19 14.7675 185.034C14.8195 184.878 14.8455 184.718 14.8455 184.554V182.82H15.4155V186H14.8455V185.544H14.8095C14.7855 185.592 14.7395 185.658 14.6715 185.742C14.6035 185.822 14.5075 185.896 14.3835 185.964C14.2595 186.028 14.0975 186.06 13.8975 186.06ZM16.2579 186V182.82H16.8279V183.282H16.8519C16.8839 183.222 16.9339 183.152 17.0019 183.072C17.0699 182.988 17.1619 182.916 17.2779 182.856C17.3979 182.792 17.5479 182.76 17.7279 182.76C17.9639 182.76 18.1619 182.818 18.3219 182.934C18.4859 183.046 18.6079 183.198 18.6879 183.39H18.6939C18.7819 183.214 18.9059 183.066 19.0659 182.946C19.2299 182.822 19.4419 182.76 19.7019 182.76C20.0459 182.76 20.3099 182.878 20.4939 183.114C20.6819 183.346 20.7759 183.646 20.7759 184.014V186H20.2059V184.044C20.2059 183.808 20.1499 183.618 20.0379 183.474C19.9259 183.326 19.7639 183.252 19.5519 183.252C19.3679 183.252 19.2199 183.302 19.1079 183.402C18.9999 183.502 18.9219 183.626 18.8739 183.774C18.8259 183.922 18.8019 184.07 18.8019 184.218V186H18.2319V184.044C18.2319 183.808 18.1759 183.618 18.0639 183.474C17.9559 183.326 17.7939 183.252 17.5779 183.252C17.3939 183.252 17.2459 183.302 17.1339 183.402C17.0259 183.502 16.9479 183.628 16.8999 183.78C16.8519 183.928 16.8279 184.074 16.8279 184.218V186H16.2579ZM23.3054 186.06C23.1054 186.06 22.9374 186.028 22.8014 185.964C22.6654 185.9 22.5554 185.824 22.4714 185.736C22.3914 185.648 22.3274 185.568 22.2794 185.496H22.2434V186H21.6734V181.44H22.2434V183.324H22.2794C22.3274 183.248 22.3914 183.166 22.4714 183.078C22.5554 182.99 22.6654 182.916 22.8014 182.856C22.9374 182.792 23.1054 182.76 23.3054 182.76C23.5454 182.76 23.7554 182.808 23.9354 182.904C24.1154 182.996 24.2654 183.122 24.3854 183.282C24.5054 183.438 24.5954 183.614 24.6554 183.81C24.7154 184.006 24.7454 184.206 24.7454 184.41C24.7454 184.614 24.7154 184.814 24.6554 185.01C24.5954 185.206 24.5054 185.384 24.3854 185.544C24.2654 185.7 24.1154 185.826 23.9354 185.922C23.7554 186.014 23.5454 186.06 23.3054 186.06ZM23.2094 185.574C23.4254 185.574 23.6034 185.518 23.7434 185.406C23.8874 185.29 23.9934 185.144 24.0614 184.968C24.1334 184.788 24.1694 184.602 24.1694 184.41C24.1694 184.214 24.1334 184.028 24.0614 183.852C23.9934 183.676 23.8874 183.532 23.7434 183.42C23.6034 183.304 23.4254 183.246 23.2094 183.246C22.9974 183.246 22.8194 183.304 22.6754 183.42C22.5354 183.532 22.4294 183.676 22.3574 183.852C22.2894 184.028 22.2554 184.214 22.2554 184.41C22.2554 184.602 22.2894 184.788 22.3574 184.968C22.4294 185.144 22.5354 185.29 22.6754 185.406C22.8194 185.518 22.9974 185.574 23.2094 185.574ZM26.9441 186.06C26.6841 186.06 26.4581 186.014 26.2661 185.922C26.0781 185.826 25.9221 185.698 25.7981 185.538C25.6781 185.378 25.5881 185.202 25.5281 185.01C25.4681 184.814 25.4381 184.614 25.4381 184.41C25.4381 184.21 25.4661 184.012 25.5221 183.816C25.5821 183.62 25.6721 183.442 25.7921 183.282C25.9161 183.122 26.0701 182.996 26.2541 182.904C26.4421 182.808 26.6641 182.76 26.9201 182.76C27.1921 182.76 27.4321 182.822 27.6401 182.946C27.8481 183.07 28.0121 183.254 28.1321 183.498C28.2521 183.742 28.3121 184.048 28.3121 184.416V184.584H26.0141C26.0261 184.764 26.0681 184.93 26.1401 185.082C26.2161 185.23 26.3221 185.35 26.4581 185.442C26.5941 185.53 26.7561 185.574 26.9441 185.574C27.1081 185.574 27.2401 185.548 27.3401 185.496C27.4441 185.44 27.5261 185.376 27.5861 185.304C27.6461 185.232 27.6861 185.17 27.7061 185.118C27.7301 185.062 27.7421 185.034 27.7421 185.034H28.2761C28.2761 185.034 28.2661 185.07 28.2461 185.142C28.2261 185.21 28.1901 185.294 28.1381 185.394C28.0861 185.494 28.0101 185.596 27.9101 185.7C27.8101 185.8 27.6821 185.886 27.5261 185.958C27.3701 186.026 27.1761 186.06 26.9441 186.06ZM26.0201 184.14H27.7541C27.7461 183.932 27.7021 183.764 27.6221 183.636C27.5421 183.504 27.4401 183.406 27.3161 183.342C27.1921 183.278 27.0601 183.246 26.9201 183.246C26.6681 183.246 26.4621 183.328 26.3021 183.492C26.1421 183.652 26.0481 183.868 26.0201 184.14ZM29.0899 186V182.82H29.6599V183.216H29.6839C29.7519 183.096 29.8519 182.99 29.9839 182.898C30.1159 182.806 30.3019 182.76 30.5419 182.76C30.6099 182.76 30.6719 182.764 30.7279 182.772C30.7839 182.776 30.8119 182.778 30.8119 182.778V183.324C30.8119 183.324 30.7799 183.322 30.7159 183.318C30.6559 183.31 30.5919 183.306 30.5239 183.306C30.2479 183.306 30.0339 183.386 29.8819 183.546C29.7339 183.702 29.6599 183.958 29.6599 184.314V186H29.0899ZM34.3283 186.06C34.0683 186.06 33.8403 186.014 33.6443 185.922C33.4483 185.826 33.2843 185.7 33.1523 185.544C33.0243 185.384 32.9263 185.206 32.8583 185.01C32.7943 184.814 32.7623 184.614 32.7623 184.41C32.7623 184.206 32.7943 184.008 32.8583 183.816C32.9223 183.62 33.0183 183.442 33.1463 183.282C33.2783 183.122 33.4423 182.996 33.6383 182.904C33.8343 182.808 34.0643 182.76 34.3283 182.76C34.5843 182.76 34.7963 182.798 34.9643 182.874C35.1323 182.95 35.2663 183.046 35.3663 183.162C35.4703 183.274 35.5463 183.388 35.5943 183.504C35.6463 183.616 35.6803 183.71 35.6963 183.786C35.7123 183.862 35.7203 183.9 35.7203 183.9H35.1683C35.1683 183.9 35.1583 183.868 35.1383 183.804C35.1183 183.736 35.0803 183.66 35.0243 183.576C34.9683 183.492 34.8843 183.418 34.7723 183.354C34.6603 183.286 34.5123 183.252 34.3283 183.252C34.1083 183.252 33.9223 183.308 33.7703 183.42C33.6223 183.528 33.5103 183.67 33.4343 183.846C33.3623 184.022 33.3263 184.21 33.3263 184.41C33.3263 184.61 33.3623 184.798 33.4343 184.974C33.5103 185.15 33.6223 185.294 33.7703 185.406C33.9223 185.514 34.1083 185.568 34.3283 185.568C34.5123 185.568 34.6603 185.536 34.7723 185.472C34.8843 185.404 34.9683 185.328 35.0243 185.244C35.0803 185.16 35.1183 185.086 35.1383 185.022C35.1583 184.954 35.1683 184.92 35.1683 184.92H35.7203C35.7203 184.92 35.7123 184.958 35.6963 185.034C35.6803 185.11 35.6463 185.206 35.5943 185.322C35.5463 185.434 35.4703 185.548 35.3663 185.664C35.2663 185.776 35.1323 185.87 34.9643 185.946C34.7963 186.022 34.5843 186.06 34.3283 186.06ZM36.562 186L36.568 181.44H37.132V186H36.562ZM38.4033 182.214C38.2953 182.214 38.2053 182.178 38.1333 182.106C38.0653 182.034 38.0313 181.948 38.0313 181.848C38.0313 181.744 38.0653 181.656 38.1333 181.584C38.2053 181.512 38.2953 181.476 38.4033 181.476C38.5073 181.476 38.5953 181.512 38.6673 181.584C38.7393 181.656 38.7753 181.744 38.7753 181.848C38.7753 181.948 38.7393 182.034 38.6673 182.106C38.5953 182.178 38.5073 182.214 38.4033 182.214ZM38.1213 186V182.82H38.6913V186H38.1213ZM41.1194 186.06C40.8594 186.06 40.6314 186.014 40.4354 185.922C40.2394 185.826 40.0754 185.7 39.9434 185.544C39.8154 185.384 39.7174 185.206 39.6494 185.01C39.5854 184.814 39.5534 184.614 39.5534 184.41C39.5534 184.206 39.5854 184.008 39.6494 183.816C39.7134 183.62 39.8094 183.442 39.9374 183.282C40.0694 183.122 40.2334 182.996 40.4294 182.904C40.6254 182.808 40.8554 182.76 41.1194 182.76C41.3754 182.76 41.5874 182.798 41.7554 182.874C41.9234 182.95 42.0574 183.046 42.1574 183.162C42.2614 183.274 42.3374 183.388 42.3854 183.504C42.4374 183.616 42.4714 183.71 42.4874 183.786C42.5034 183.862 42.5114 183.9 42.5114 183.9H41.9594C41.9594 183.9 41.9494 183.868 41.9294 183.804C41.9094 183.736 41.8714 183.66 41.8154 183.576C41.7594 183.492 41.6754 183.418 41.5634 183.354C41.4514 183.286 41.3034 183.252 41.1194 183.252C40.8994 183.252 40.7134 183.308 40.5614 183.42C40.4134 183.528 40.3014 183.67 40.2254 183.846C40.1534 184.022 40.1174 184.21 40.1174 184.41C40.1174 184.61 40.1534 184.798 40.2254 184.974C40.3014 185.15 40.4134 185.294 40.5614 185.406C40.7134 185.514 40.8994 185.568 41.1194 185.568C41.3034 185.568 41.4514 185.536 41.5634 185.472C41.6754 185.404 41.7594 185.328 41.8154 185.244C41.8714 185.16 41.9094 185.086 41.9294 185.022C41.9494 184.954 41.9594 184.92 41.9594 184.92H42.5114C42.5114 184.92 42.5034 184.958 42.4874 185.034C42.4714 185.11 42.4374 185.206 42.3854 185.322C42.3374 185.434 42.2614 185.548 42.1574 185.664C42.0574 185.776 41.9234 185.87 41.7554 185.946C41.5874 186.022 41.3754 186.06 41.1194 186.06ZM43.353 186V181.44H43.923V184.092L45.189 182.82H45.933L44.469 184.266L45.963 186H45.237L43.923 184.47V186H43.353ZM49.384 182.76C49.584 182.76 49.752 182.792 49.888 182.856C50.024 182.92 50.134 182.996 50.218 183.084C50.302 183.168 50.366 183.248 50.41 183.324H50.446V182.82H51.016V186H50.446V185.496H50.41C50.366 185.572 50.302 185.654 50.218 185.742C50.134 185.83 50.024 185.906 49.888 185.97C49.752 186.03 49.584 186.06 49.384 186.06C49.144 186.06 48.934 186.014 48.754 185.922C48.574 185.826 48.424 185.7 48.304 185.544C48.184 185.384 48.094 185.206 48.034 185.01C47.974 184.814 47.944 184.614 47.944 184.41C47.944 184.206 47.974 184.006 48.034 183.81C48.094 183.614 48.184 183.438 48.304 183.282C48.424 183.122 48.574 182.996 48.754 182.904C48.934 182.808 49.144 182.76 49.384 182.76ZM49.48 183.246C49.268 183.246 49.09 183.304 48.946 183.42C48.802 183.532 48.694 183.676 48.622 183.852C48.554 184.028 48.52 184.214 48.52 184.41C48.52 184.602 48.554 184.788 48.622 184.968C48.694 185.144 48.802 185.29 48.946 185.406C49.09 185.518 49.268 185.574 49.48 185.574C49.692 185.574 49.868 185.518 50.008 185.406C50.152 185.29 50.258 185.144 50.326 184.968C50.398 184.788 50.434 184.602 50.434 184.41C50.434 184.214 50.398 184.028 50.326 183.852C50.258 183.676 50.152 183.532 50.008 183.42C49.868 183.304 49.692 183.246 49.48 183.246ZM51.8536 186V182.82H52.4236V183.282H52.4596C52.4876 183.234 52.5336 183.168 52.5976 183.084C52.6656 183 52.7616 182.926 52.8856 182.862C53.0096 182.794 53.1656 182.76 53.3536 182.76C53.5856 182.76 53.7836 182.814 53.9476 182.922C54.1116 183.026 54.2356 183.168 54.3196 183.348C54.4076 183.528 54.4516 183.73 54.4516 183.954V186H53.8816V183.99C53.8816 183.778 53.8216 183.602 53.7016 183.462C53.5856 183.322 53.4156 183.252 53.1916 183.252C53.0116 183.252 52.8656 183.298 52.7536 183.39C52.6416 183.478 52.5576 183.596 52.5016 183.744C52.4496 183.888 52.4236 184.042 52.4236 184.206V186H51.8536ZM56.673 186.06C56.433 186.06 56.223 186.014 56.043 185.922C55.863 185.826 55.713 185.7 55.593 185.544C55.473 185.384 55.383 185.206 55.323 185.01C55.263 184.814 55.233 184.614 55.233 184.41C55.233 184.206 55.263 184.006 55.323 183.81C55.383 183.614 55.473 183.438 55.593 183.282C55.713 183.122 55.863 182.996 56.043 182.904C56.223 182.808 56.433 182.76 56.673 182.76C56.873 182.76 57.041 182.792 57.177 182.856C57.313 182.92 57.423 182.996 57.507 183.084C57.591 183.168 57.655 183.248 57.699 183.324H57.735V181.44H58.305V186H57.735V185.496H57.699C57.655 185.572 57.591 185.654 57.507 185.742C57.423 185.83 57.313 185.906 57.177 185.97C57.041 186.03 56.873 186.06 56.673 186.06ZM56.769 185.574C56.981 185.574 57.157 185.518 57.297 185.406C57.441 185.29 57.547 185.144 57.615 184.968C57.687 184.788 57.723 184.602 57.723 184.41C57.723 184.214 57.687 184.028 57.615 183.852C57.547 183.676 57.441 183.532 57.297 183.42C57.157 183.304 56.981 183.246 56.769 183.246C56.557 183.246 56.379 183.304 56.235 183.42C56.091 183.532 55.983 183.676 55.911 183.852C55.843 184.028 55.809 184.214 55.809 184.41C55.809 184.602 55.843 184.788 55.911 184.968C55.983 185.144 56.091 185.29 56.235 185.406C56.379 185.518 56.557 185.574 56.769 185.574ZM60.6499 187.176V182.82H61.2199V183.324H61.2559C61.3039 183.248 61.3679 183.166 61.4479 183.078C61.5319 182.99 61.6419 182.916 61.7779 182.856C61.9139 182.792 62.0819 182.76 62.2819 182.76C62.5219 182.76 62.7319 182.808 62.9119 182.904C63.0919 182.996 63.2419 183.122 63.3619 183.282C63.4819 183.438 63.5719 183.614 63.6319 183.81C63.6919 184.006 63.7219 184.206 63.7219 184.41C63.7219 184.614 63.6919 184.814 63.6319 185.01C63.5719 185.206 63.4819 185.384 63.3619 185.544C63.2419 185.7 63.0919 185.826 62.9119 185.922C62.7319 186.014 62.5219 186.06 62.2819 186.06C62.0819 186.06 61.9139 186.028 61.7779 185.964C61.6419 185.9 61.5319 185.824 61.4479 185.736C61.3679 185.648 61.3039 185.568 61.2559 185.496H61.2199V187.176H60.6499ZM61.2319 184.41C61.2319 184.602 61.2659 184.788 61.3339 184.968C61.4059 185.144 61.5119 185.29 61.6519 185.406C61.7959 185.518 61.9739 185.574 62.1859 185.574C62.4019 185.574 62.5799 185.518 62.7199 185.406C62.8639 185.29 62.9699 185.144 63.0379 184.968C63.1099 184.788 63.1459 184.602 63.1459 184.41C63.1459 184.214 63.1099 184.028 63.0379 183.852C62.9699 183.676 62.8639 183.532 62.7199 183.42C62.5799 183.304 62.4019 183.246 62.1859 183.246C61.9739 183.246 61.7959 183.304 61.6519 183.42C61.5119 183.532 61.4059 183.676 61.3339 183.852C61.2659 184.028 61.2319 184.214 61.2319 184.41ZM64.564 186L64.57 181.44H65.134V186H64.564ZM67.4133 182.76C67.6133 182.76 67.7813 182.792 67.9173 182.856C68.0533 182.92 68.1633 182.996 68.2473 183.084C68.3313 183.168 68.3953 183.248 68.4393 183.324H68.4753V182.82H69.0453V186H68.4753V185.496H68.4393C68.3953 185.572 68.3313 185.654 68.2473 185.742C68.1633 185.83 68.0533 185.906 67.9173 185.97C67.7813 186.03 67.6133 186.06 67.4133 186.06C67.1733 186.06 66.9633 186.014 66.7833 185.922C66.6033 185.826 66.4533 185.7 66.3333 185.544C66.2133 185.384 66.1233 185.206 66.0633 185.01C66.0033 184.814 65.9733 184.614 65.9733 184.41C65.9733 184.206 66.0033 184.006 66.0633 183.81C66.1233 183.614 66.2133 183.438 66.3333 183.282C66.4533 183.122 66.6033 182.996 66.7833 182.904C66.9633 182.808 67.1733 182.76 67.4133 182.76ZM67.5093 183.246C67.2973 183.246 67.1193 183.304 66.9753 183.42C66.8313 183.532 66.7233 183.676 66.6513 183.852C66.5833 184.028 66.5493 184.214 66.5493 184.41C66.5493 184.602 66.5833 184.788 66.6513 184.968C66.7233 185.144 66.8313 185.29 66.9753 185.406C67.1193 185.518 67.2973 185.574 67.5093 185.574C67.7213 185.574 67.8973 185.518 68.0373 185.406C68.1813 185.29 68.2873 185.144 68.3553 184.968C68.4273 184.788 68.4633 184.602 68.4633 184.41C68.4633 184.214 68.4273 184.028 68.3553 183.852C68.2873 183.676 68.1813 183.532 68.0373 183.42C67.8973 183.304 67.7213 183.246 67.5093 183.246ZM69.915 187.17C69.823 187.17 69.745 187.166 69.681 187.158C69.617 187.15 69.585 187.146 69.585 187.146V186.66C69.585 186.66 69.617 186.662 69.681 186.666C69.749 186.674 69.821 186.678 69.897 186.678C70.133 186.678 70.325 186.628 70.473 186.528C70.625 186.432 70.753 186.272 70.857 186.048L69.627 182.82H70.221L71.139 185.304L72.063 182.82H72.663L71.433 186.006C71.277 186.406 71.075 186.7 70.827 186.888C70.583 187.076 70.279 187.17 69.915 187.17Z" fill="white"/>
<g filter="url(#filter0_f_25_2)">
<ellipse cx="104.5" cy="41" rx="63.5" ry="52" fill="#FFD500"/>
</g>
<g filter="url(#filter1_f_25_2)">
<rect x="-26" y="96.9291" width="92.8112" height="54.6082" transform="rotate(-28.9529 -26 96.9291)" fill="#D9D9D9"/>
</g>
<g filter="url(#filter2_f_25_2)">
<path d="M38 52.2408L98.1583 48L101.633 97.2927L41.4748 101.533L38 52.2408Z" fill="white"/>
</g>
<path d="M62.8506 82.0164C62.2913 82.0765 61.7579 81.9871 61.2503 81.7482C60.7428 81.5093 60.3204 81.1618 59.9834 80.7056C59.6509 80.2436 59.4536 79.7226 59.3913 79.1426L59.3571 78.8242C59.3527 78.7827 59.3764 78.7592 59.4281 78.7537L61.2147 78.5619C61.2562 78.5575 61.2791 78.576 61.2836 78.6174L61.3177 78.9359C61.355 79.2828 61.5037 79.5707 61.764 79.7994C62.0237 80.023 62.3167 80.1173 62.643 80.0822C62.9744 80.0467 63.2433 79.8921 63.4496 79.6185C63.6554 79.3397 63.7397 79.0269 63.7025 78.6799L63.5841 77.5769C63.2285 77.7774 62.8383 77.9005 62.4137 77.9461C61.8389 78.0078 61.3057 77.9209 60.8142 77.6856C60.3176 77.4508 59.901 77.1079 59.5645 76.6568C59.2326 76.2001 59.0355 75.6817 58.9733 75.1017L58.8674 74.1152C58.804 73.5248 58.8895 72.9787 59.1237 72.4769C59.3522 71.9704 59.6868 71.5495 60.1275 71.2141C60.5676 70.8735 61.0673 70.6732 61.6266 70.6132C62.1911 70.5526 62.7242 70.6394 63.226 70.8737C63.7279 71.1079 64.1473 71.4531 64.4844 71.9093C64.8261 72.3598 65.0278 72.8725 65.0895 73.4473L65.1954 74.4338L65.6445 78.4715C65.7067 79.0515 65.6216 79.6001 65.389 80.1175C65.1564 80.6349 64.8177 81.0667 64.373 81.413C63.9329 81.7536 63.4254 81.9547 62.8506 82.0164ZM62.2069 76.0196C62.5487 75.9829 62.8205 75.8307 63.0222 75.5628C63.2239 75.295 63.3062 74.9876 63.2689 74.6406L63.163 73.6541C63.1263 73.3123 62.9781 73.0296 62.7184 72.8061C62.4587 72.5825 62.1631 72.4885 61.8317 72.5241C61.5055 72.5591 61.2415 72.7105 61.0397 72.9784C60.838 73.2462 60.756 73.5562 60.7938 73.9084L60.8997 74.8949C60.9358 75.2315 61.0812 75.5119 61.3357 75.736C61.5903 75.9601 61.8807 76.0547 62.2069 76.0196ZM69.997 81.2494C69.4377 81.3094 68.9043 81.22 68.3968 80.9811C67.8892 80.7423 67.4669 80.3947 67.1298 79.9385C66.7974 79.4765 66.6 78.9556 66.5378 78.3756L66.5036 78.0571C66.4991 78.0157 66.5228 77.9922 66.5746 77.9866L68.3612 77.7948C68.4026 77.7904 68.4256 77.8089 68.43 77.8503L68.4642 78.1688C68.5014 78.5158 68.6502 78.8036 68.9105 79.0323C69.1702 79.2559 69.4632 79.3502 69.7894 79.3152C70.1209 79.2796 70.3897 79.125 70.5961 78.8514C70.8019 78.5727 70.8862 78.2598 70.8489 77.9128L70.7305 76.8098C70.3749 77.0103 69.9848 77.1334 69.5601 77.179C68.9853 77.2407 68.4522 77.1539 67.9607 76.9185C67.4641 76.6837 67.0475 76.3408 66.711 75.8898C66.3791 75.433 66.182 74.9146 66.1197 74.3346L66.0138 73.3481C65.9505 72.7577 66.0359 72.2116 66.2702 71.7098C66.4987 71.2034 66.8333 70.7824 67.2739 70.447C67.7141 70.1065 68.2138 69.9061 68.773 69.8461C69.3375 69.7855 69.8707 69.8724 70.3725 70.1066C70.8743 70.3408 71.2938 70.6861 71.6308 71.1423C71.9725 71.5928 72.1742 72.1054 72.2359 72.6802L72.3418 73.6668L72.7909 77.7044C72.8532 78.2844 72.768 78.8331 72.5354 79.3504C72.3029 79.8678 71.9642 80.2996 71.5195 80.6459C71.0793 80.9865 70.5719 81.1877 69.997 81.2494ZM69.3534 75.2526C69.6951 75.2159 69.9669 75.0636 70.1686 74.7958C70.3704 74.5279 70.4526 74.2205 70.4154 73.8735L70.3095 72.887C70.2728 72.5452 70.1246 72.2625 69.8649 72.039C69.6052 71.8154 69.3096 71.7214 68.9782 71.757C68.6519 71.792 68.3879 71.9435 68.1862 72.2113C67.9844 72.4792 67.9025 72.7892 67.9403 73.1413L68.0462 74.1278C68.0823 74.4644 68.2276 74.7448 68.4822 74.9689C68.7367 75.193 69.0271 75.2876 69.3534 75.2526ZM77.1435 80.4823C76.5842 80.5423 76.0508 80.4529 75.5432 80.214C75.0357 79.9752 74.6133 79.6276 74.2763 79.1714C73.9438 78.7095 73.7465 78.1885 73.6842 77.6085L73.65 77.29C73.6456 77.2486 73.6693 77.2251 73.721 77.2195L75.5076 77.0278C75.5491 77.0233 75.572 77.0418 75.5765 77.0832L75.6106 77.4017C75.6479 77.7487 75.7966 78.0365 76.0569 78.2653C76.3166 78.4888 76.6096 78.5831 76.9359 78.5481C77.2673 78.5125 77.5362 78.3579 77.7425 78.0843C77.9483 77.8056 78.0326 77.4927 77.9954 77.1458L77.877 76.0427C77.5214 76.2433 77.1312 76.3663 76.7066 76.4119C76.1318 76.4736 75.5986 76.3868 75.1072 76.1514C74.6105 75.9166 74.1939 75.5737 73.8574 75.1227C73.5255 74.6659 73.3284 74.1475 73.2662 73.5675L73.1603 72.581C73.0969 71.9907 73.1824 71.4446 73.4166 70.9427C73.6451 70.4363 73.9797 70.0154 74.4204 69.68C74.8605 69.3394 75.3602 69.1391 75.9195 69.079C76.484 69.0185 77.0171 69.1053 77.5189 69.3395C78.0208 69.5738 78.4402 69.919 78.7773 70.3752C79.119 70.8257 79.3207 71.3383 79.3824 71.9132L79.4883 72.8997L79.9374 76.9373C79.9996 77.5173 79.9145 78.066 79.6819 78.5834C79.4493 79.1007 79.1106 79.5325 78.6659 79.8789C78.2258 80.2194 77.7183 80.4206 77.1435 80.4823ZM76.4998 74.4855C76.8416 74.4488 77.1134 74.2965 77.3151 74.0287C77.5168 73.7608 77.5991 73.4534 77.5618 73.1065L77.4559 72.1199C77.4192 71.7781 77.271 71.4955 77.0113 71.2719C76.7516 71.0484 76.456 70.9544 76.1246 70.9899C75.7984 71.025 75.5344 71.1764 75.3326 71.4442C75.1309 71.7121 75.0489 72.0221 75.0867 72.3742L75.1926 73.3608C75.2287 73.6974 75.3741 73.9777 75.6286 74.2018C75.8832 74.426 76.1736 74.5205 76.4998 74.4855ZM82.7741 79.7208L80.9874 79.9125C80.9512 79.9164 80.9329 79.8922 80.9325 79.8399L82.1407 73.9664L79.7904 68.9071C79.7756 68.8668 79.789 68.8444 79.8304 68.84L81.617 68.6482C81.6688 68.6427 81.7021 68.66 81.7169 68.7003L83.1871 72.3691L83.8608 68.4702C83.8667 68.4277 83.8982 68.4034 83.9551 68.3972L85.7184 68.208C85.7599 68.2035 85.7776 68.2226 85.7717 68.2651L84.5548 73.6916L86.9604 79.1929C86.9866 79.2424 86.9739 79.27 86.9221 79.2755L85.1433 79.4665C85.0967 79.4715 85.0602 79.4492 85.0339 79.3996L83.5131 75.4063L82.8589 79.6331C82.8593 79.6854 82.831 79.7147 82.7741 79.7208Z" fill="black"/>
</g>
<rect x="0.5" y="0.5" width="143" height="195" stroke="white" stroke-opacity="0.2"/>
</g>
<defs>
<filter id="filter0_f_25_2" x="-39" y="-91" width="287" height="264" filterUnits="userSpaceOnUse" color-interpolation-filters="sRGB">
<feFlood flood-opacity="0" result="BackgroundImageFix"/>
<feBlend mode="normal" in="SourceGraphic" in2="BackgroundImageFix" result="shape"/>
<feGaussianBlur stdDeviation="40" result="effect1_foregroundBlur_25_2"/>
</filter>
<filter id="filter1_f_25_2" x="-36" y="42" width="127.647" height="112.712" filterUnits="userSpaceOnUse" color-interpolation-filters="sRGB">
<feFlood flood-opacity="0" result="BackgroundImageFix"/>
<feBlend mode="normal" in="SourceGraphic" in2="BackgroundImageFix" result="shape"/>
<feGaussianBlur stdDeviation="5" result="effect1_foregroundBlur_25_2"/>
</filter>
<filter id="filter2_f_25_2" x="28" y="38" width="83.6331" height="73.5335" filterUnits="userSpaceOnUse" color-interpolation-filters="sRGB">
<feFlood flood-opacity="0" result="BackgroundImageFix"/>
<feBlend mode="normal" in="SourceGraphic" in2="BackgroundImageFix" result="shape"/>
<feGaussianBlur stdDeviation="5" result="effect1_foregroundBlur_25_2"/>
</filter>
<clipPath id="clip0_25_2">
<rect width="144" height="196" fill="white"/>
</clipPath>
<clipPath id="clip1_25_2">
<rect width="144" height="196" fill="white"/>
</clipPath>
</defs>
</svg>
