<svg xmlns="http://www.w3.org/2000/svg" version="1.1" xmlns:xlink="http://www.w3.org/1999/xlink" xmlns:svgjs="http://svgjs.dev/svgjs" width="1500" height="1500" viewBox="0 0 1500 1500"><rect width="1500" height="1500" fill="#000000"></rect><g transform="matrix(0.6666666666666666,0,0,0.6666666666666666,249.39393939393938,656.3939816104764)"><svg viewBox="0 0 396 74" data-background-color="#000000" preserveAspectRatio="xMidYMid meet" height="280" width="1500" xmlns="http://www.w3.org/2000/svg" xmlns:xlink="http://www.w3.org/1999/xlink"><g id="tight-bounds" transform="matrix(1,0,0,1,0.2400000000000091,0.10810014727542239)"><svg viewBox="0 0 395.52 73.78379970544918" height="73.78379970544918" width="395.52"><g><svg viewBox="0 0 395.52 73.78379970544918" height="73.78379970544918" width="395.52"><g><svg viewBox="0 0 395.52 73.78379970544918" height="73.78379970544918" width="395.52"><g id="textblocktransform"><svg viewBox="0 0 395.52 73.78379970544918" height="73.78379970544918" width="395.52" id="textblock"><g><svg viewBox="0 0 395.52 73.78379970544918" height="73.78379970544918" width="395.52"><g transform="matrix(1,0,0,1,0,0)"><svg width="395.52" viewBox="-0.6 -33.25 203.68 38" height="73.78379970544918" data-palette-color="url(#465422fb-d6b4-49f8-af46-fde0e4d88cfc)"></svg></g></svg></g></svg></g></svg></g></svg></g><defs></defs><mask id="274fe79c-acc5-42ec-93f8-a54dcc47ecf1"><g id="SvgjsG1353"><svg viewBox="0 0 395.52 73.78379970544918" height="73.78379970544918" width="395.52"><g><svg viewBox="0 0 395.52 73.78379970544918" height="73.78379970544918" width="395.52"><g><svg viewBox="0 0 395.52 73.78379970544918" height="73.78379970544918" width="395.52"><g id="SvgjsG1352"><svg viewBox="0 0 395.52 73.78379970544918" height="73.78379970544918" width="395.52" id="SvgjsSvg1351"><g><svg viewBox="0 0 395.52 73.78379970544918" height="73.78379970544918" width="395.52"><g transform="matrix(1,0,0,1,0,0)"><svg width="395.52" viewBox="-0.6 -33.25 203.68 38" height="73.78379970544918" data-palette-color="url(#465422fb-d6b4-49f8-af46-fde0e4d88cfc)"><path d="M26.4-12.55L26.4-12.55Q31.25-12.4 31.53-12.4 31.8-12.4 31.85-12.4L31.85-12.4Q33.05-12.5 33.05-12.05L33.05-12.05Q33.05-11.35 31.1-11.35L31.1-11.35 26.85-11.45Q25.55-11.35 25.3-11.2L25.3-11.2Q23.2-8.6 19.65-3.68 16.1 1.25 16.1 2.2L16.1 2.2Q16.1 2.6 17 2L17 2Q17.55 2 17.55 2.15L17.55 2.15Q17.55 2.4 16.45 2.9L16.45 2.9 15.05 3.65Q14.1 4.45 12.88 4.45 11.65 4.45 11.75 3.85L11.75 3.85Q11.8 2.65 15.3-2.23 18.8-7.1 22.55-11.5L22.55-11.5Q18.95-10.85 17.05-10.85L17.05-10.85Q16.85-10.9 16.85-11.18 16.85-11.45 17.45-11.95 18.05-12.45 18.73-12.45 19.4-12.45 20.9-12.5L20.9-12.5 23.45-12.5Q25.15-14.8 31-23.1L31-23.1Q33.4-26.55 33.4-28.8L33.4-28.8Q33.4-32.3 28.2-32.3L28.2-32.3Q24.15-32.3 18.68-30.05 13.2-27.8 8.6-23.9L8.6-23.9Q5.35-21.2 3.45-18.05 1.55-14.9 1.55-12.45L1.55-12.45Q1.55-8.5 6.25-8.5L6.25-8.5Q6.65-8.5 7.1-8.55L7.1-8.55Q10.15-8.8 12.88-12.03 15.6-15.25 15.6-17.45L15.6-17.45Q15.6-17.65 15.55-17.9L15.55-17.9Q16.85-17.65 16.85-16.35L16.85-16.35Q16.85-14.2 14.05-11.3L14.05-11.3Q10.25-7.35 5.25-7.35L5.25-7.35Q2.5-7.35 0.95-8.8-0.6-10.25-0.6-12.75L-0.6-12.75Q-0.6-18.65 6.6-24.65L6.6-24.65Q11.8-28.9 17.65-31.08 23.5-33.25 27.83-33.25 32.15-33.25 34.27-32 36.4-30.75 36.4-28.53 36.4-26.3 34.45-23.5L34.45-23.5Q33.3-21.65 26.4-12.55ZM48.2-14.95L48.2-14.95 48.9-15.1Q49.45-15.1 49.95-14.65 50.45-14.2 50.45-13.95 50.45-13.7 47.35-9.13 44.25-4.55 44.25-2.75L44.25-2.75Q44.25-2.6 44.3-2.45L44.3-2.45Q44.55-1.3 45.4-1.3L45.4-1.3Q48-1.3 54.9-9.9L54.9-9.9Q55.05-10.1 55.25-10.1 55.45-10.1 55.45-9.73 55.45-9.35 55-8.75L55-8.75Q48.6-0.2 45.25-0.2L45.25-0.2Q44.8-0.2 44.4-0.35L44.4-0.35Q42.2-1.2 42.2-3.65L42.2-3.65Q42.2-4.5 42.4-5.35L42.4-5.35 39.3-2.35Q36.35 0.25 35.02 0.25 33.7 0.25 32.5-0.6L32.5-0.6Q31.15-1.6 31.15-3.25L31.15-3.25Q31.15-6.9 36.25-11.98 41.35-17.05 45.6-17.05L45.6-17.05Q47.25-17.05 47.8-15.9L47.8-15.9Q47.95-15.5 48.05-15.23 48.15-14.95 48.2-14.95ZM33.25-2.65L33.25-2.65Q33.25-0.85 34.5-0.85L34.5-0.85Q37.4-0.85 42.4-7.2L42.4-7.2 47.7-14.5Q47.3-15.2 46.4-15.2L46.4-15.2Q43.35-15.2 38.3-10.48 33.25-5.75 33.25-2.65ZM62.45 0.6L62.45 0.6Q58.5 0.6 55.75-5.65L55.75-5.65Q55.05-4.6 52.6 0.25L52.6 0.25Q50.8-0.45 50.8-1.65L50.8-1.65Q50.8-3.8 57.25-13.45 63.7-23.1 66.1-24.8L66.1-24.8Q66.3-24.95 66.9-24.95L66.9-24.95Q68.45-24.95 68.45-24.15L68.45-24.15Q68.45-23.75 64.97-19.65 61.5-15.55 61.1-14.7L61.1-14.7Q65.65-17.05 68.35-17.05L68.35-17.05Q69.9-17.05 71-15.8L71-15.8Q72.05-14.75 72.05-13.65L72.05-13.65Q72.05-13.5 72.05-13.35L72.05-13.35Q71.65-10.5 68.05-8.65L68.05-8.65Q65.15-7.1 62.65-7.1 60.15-7.1 59.15-7.75L59.15-7.75Q58.85-7.8 58.67-7.6 58.5-7.4 58.6-7.1L58.6-7.1Q60-0.9 63.25-0.9L63.25-0.9Q64.95-0.9 67.62-2.8 70.3-4.7 73.2-8.15L73.2-8.15Q73.55-8.5 73.82-8.5 74.1-8.5 74.1-8.22 74.1-7.95 73.75-7.45L73.75-7.45Q71.05-4.15 68.65-2.25L68.65-2.25Q65 0.6 62.45 0.6ZM69.65-14.7L69.65-14.7Q69.65-15.1 69.2-15.5 68.75-15.9 68.25-15.9L68.25-15.9Q65.55-15.9 61.77-13.65 58-11.4 57.15-8.55L57.15-8.55Q57.6-8.55 59.55-8.4L59.55-8.4Q61.8-8.4 65.45-10.25L65.45-10.25Q69.65-12.35 69.65-14.7ZM74.44 0.65L74.44 0.65Q73.89 0.65 73.44 0.5L73.44 0.5Q70.24-0.4 70.24-3.1L70.24-3.1Q70.24-6.6 74.64-11.2 79.04-15.8 82.54-15.8L82.54-15.8Q83.69-15.8 84.42-15.18 85.14-14.55 85.14-13.65L85.14-13.65Q85.14-10.85 80.92-8.3 76.69-5.75 74.04-5.75L74.04-5.75Q73.64-5.75 73.34-5.85L73.34-5.85Q72.59-4.5 72.59-3L72.59-3Q72.59-0.4 75.07-0.4 77.54-0.4 81.49-3.75L81.49-3.75Q84.54-6.2 86.69-8.95L86.69-8.95Q87.14-9.55 87.47-9.55 87.79-9.55 87.79-9.25 87.79-8.95 87.39-8.4L87.39-8.4Q84.69-4.85 80.89-2.1 77.09 0.65 74.44 0.65ZM83.89-13.75L83.89-13.75Q83.89-14.35 82.62-14.35 81.34-14.35 78.99-12.4L78.99-12.4Q75.84-9.8 74.09-6.95L74.09-6.95Q74.39-6.85 74.74-6.85L74.74-6.85Q76.64-6.85 79.82-8.88 82.99-10.9 83.79-13.3L83.79-13.3Q83.89-13.55 83.89-13.75ZM134.19-21.4L134.19-21.4Q132.34-20.65 131.01-20.65 129.69-20.65 129.69-21.2L129.69-21.2Q129.69-21.55 131.16-21.6 132.64-21.65 133.29-21.95L133.29-21.95Q135.19-22.95 135.19-24.9L135.19-24.9Q135.19-25.9 134.64-27L134.64-27Q133.04-29.85 126.89-29.85L126.89-29.85Q123.34-29.85 119.79-28.78 116.24-27.7 113.84-25.48 111.44-23.25 111.44-21.35L111.44-21.35Q111.44-18.45 117.19-17.1L117.19-17.1 123.09-16Q126.64-15.35 128.39-14.2L128.39-14.2Q130.69-12.8 130.69-10.2L130.69-10.2Q130.69-9.15 130.34-7.95L130.34-7.95Q128.74-2.55 122.09 0.3L122.09 0.3Q116.54 2.75 108.99 2.75L108.99 2.75Q106.84 2.75 105.24 2.55L105.24 2.55Q106.84 3.45 109.44 4.1L109.44 4.1Q109.64 4.15 109.64 4.3L109.64 4.3Q109.64 4.75 108.59 4.75L108.59 4.75Q106.54 4.75 103.49 2.3L103.49 2.3Q99.34 1.65 97.29 0L97.29 0Q95.99-1.05 94.89-3.1 93.79-5.15 93.79-6.8 93.79-8.45 94.44-9.55L94.44-9.55Q95.94-12.2 98.24-12.2L98.24-12.2Q99.99-12.2 100.29-9.25L100.29-9.25Q100.99-3.55 101.24-2.75L101.24-2.75Q101.99-0.3 103.79 1.4L103.79 1.4Q105.89 1.85 108.34 1.85L108.34 1.85Q113.74 1.85 118.94-0.3 124.14-2.45 126.44-6.4L126.44-6.4Q127.39-7.95 127.39-9.15L127.39-9.15Q127.39-11.5 123.24-12.8L123.24-12.8 114.44-14.8Q111.74-15.45 110.11-16.95 108.49-18.45 108.49-20.4L108.49-20.4Q108.49-23.4 112.24-26.4L112.24-26.4Q115.09-28.7 119.21-29.98 123.34-31.25 127.31-31.25 131.29-31.25 133.89-30.1L133.89-30.1Q137.24-28.55 137.24-25.58 137.24-22.6 134.19-21.4ZM101.99 0.9L101.99 0.9Q99.09-2.3 98.29-7.85L98.29-7.85Q97.84-11 97.44-11 97.04-11 96.69-10.78 96.34-10.55 95.99-9.8 95.64-9.05 95.64-7.85L95.64-7.85Q95.64-4 98.34-1.25L98.34-1.25Q99.69 0.15 101.99 0.9ZM145.09-16.1L145.09-16.1 152.29-16.2Q152.44-16.1 152.44-16.05L152.44-16.05Q152.44-15.6 146.21-14.8 139.99-14 139.49-13.85L139.49-13.85Q138.54-13 135.99-8.78 133.44-4.55 133.44-2.6L133.44-2.6Q133.44-0.75 135.99-0.75L135.99-0.75Q137.19-0.75 139.14-1.5 141.09-2.25 142.14-2.9L142.14-2.9Q144.94-4.65 148.14-8.05L148.14-8.05Q148.84-8.75 149.09-8.75L149.09-8.75Q149.24-8.75 149.24-8.45 149.24-8.15 148.49-7.25L148.49-7.25Q145.89-4.05 142.64-2.1L142.64-2.1Q138.74 0.3 135.19 0.3L135.19 0.3Q133.64 0.3 132.66-0.38 131.69-1.05 131.69-3.1 131.69-5.15 133.49-8.72 135.29-12.3 136.24-14.05L136.24-14.05Q135.54-13.9 135.04-13.9L135.04-13.9Q133.59-13.9 133.59-15.05L133.59-15.05Q133.59-15.9 134.79-16.25L134.79-16.25Q134.94-16.25 135.24-16.3L135.24-16.3 138.14-16.3Q139.04-17.45 140.19-18.95L140.19-18.95Q141.59-20.75 142.09-20.75 142.59-20.75 143.34-20.35 144.09-19.95 144.09-19.4 144.09-18.85 141.69-16.15L141.69-16.15Q142.99-16.1 145.09-16.1ZM163.48-14.95L163.48-14.95 164.18-15.1Q164.73-15.1 165.23-14.65 165.73-14.2 165.73-13.95 165.73-13.7 162.63-9.13 159.53-4.55 159.53-2.75L159.53-2.75Q159.53-2.6 159.58-2.45L159.58-2.45Q159.83-1.3 160.68-1.3L160.68-1.3Q163.28-1.3 170.18-9.9L170.18-9.9Q170.33-10.1 170.53-10.1 170.73-10.1 170.73-9.73 170.73-9.35 170.28-8.75L170.28-8.75Q163.88-0.2 160.53-0.2L160.53-0.2Q160.08-0.2 159.68-0.35L159.68-0.35Q157.48-1.2 157.48-3.65L157.48-3.65Q157.48-4.5 157.68-5.35L157.68-5.35 154.58-2.35Q151.63 0.25 150.31 0.25 148.98 0.25 147.78-0.6L147.78-0.6Q146.43-1.6 146.43-3.25L146.43-3.25Q146.43-6.9 151.53-11.98 156.63-17.05 160.88-17.05L160.88-17.05Q162.53-17.05 163.08-15.9L163.08-15.9Q163.23-15.5 163.33-15.23 163.43-14.95 163.48-14.95ZM148.53-2.65L148.53-2.65Q148.53-0.85 149.78-0.85L149.78-0.85Q152.68-0.85 157.68-7.2L157.68-7.2 162.98-14.5Q162.58-15.2 161.68-15.2L161.68-15.2Q158.63-15.2 153.58-10.48 148.53-5.75 148.53-2.65ZM177.73 0.6L177.73 0.6Q173.78 0.6 171.03-5.65L171.03-5.65Q170.33-4.6 167.88 0.25L167.88 0.25Q166.08-0.45 166.08-1.65L166.08-1.65Q166.08-3.8 172.53-13.45 178.98-23.1 181.38-24.8L181.38-24.8Q181.58-24.95 182.18-24.95L182.18-24.95Q183.73-24.95 183.73-24.15L183.73-24.15Q183.73-23.75 180.26-19.65 176.78-15.55 176.38-14.7L176.38-14.7Q180.93-17.05 183.63-17.05L183.63-17.05Q185.18-17.05 186.28-15.8L186.28-15.8Q187.33-14.75 187.33-13.65L187.33-13.65Q187.33-13.5 187.33-13.35L187.33-13.35Q186.93-10.5 183.33-8.65L183.33-8.65Q180.43-7.1 177.93-7.1 175.43-7.1 174.43-7.75L174.43-7.75Q174.13-7.8 173.96-7.6 173.78-7.4 173.88-7.1L173.88-7.1Q175.28-0.9 178.53-0.9L178.53-0.9Q180.23-0.9 182.91-2.8 185.58-4.7 188.48-8.15L188.48-8.15Q188.83-8.5 189.11-8.5 189.38-8.5 189.38-8.22 189.38-7.95 189.03-7.45L189.03-7.45Q186.33-4.15 183.93-2.25L183.93-2.25Q180.28 0.6 177.73 0.6ZM184.93-14.7L184.93-14.7Q184.93-15.1 184.48-15.5 184.03-15.9 183.53-15.9L183.53-15.9Q180.83-15.9 177.06-13.65 173.28-11.4 172.43-8.55L172.43-8.55Q172.88-8.55 174.83-8.4L174.83-8.4Q177.08-8.4 180.73-10.25L180.73-10.25Q184.93-12.35 184.93-14.7ZM189.73 0.65L189.73 0.65Q189.18 0.65 188.73 0.5L188.73 0.5Q185.53-0.4 185.53-3.1L185.53-3.1Q185.53-6.6 189.93-11.2 194.33-15.8 197.83-15.8L197.83-15.8Q198.98-15.8 199.7-15.18 200.43-14.55 200.43-13.65L200.43-13.65Q200.43-10.85 196.2-8.3 191.98-5.75 189.33-5.75L189.33-5.75Q188.93-5.75 188.63-5.85L188.63-5.85Q187.88-4.5 187.88-3L187.88-3Q187.88-0.4 190.35-0.4 192.83-0.4 196.78-3.75L196.78-3.75Q199.83-6.2 201.98-8.95L201.98-8.95Q202.43-9.55 202.75-9.55 203.08-9.55 203.08-9.25 203.08-8.95 202.68-8.4L202.68-8.4Q199.98-4.85 196.18-2.1 192.38 0.65 189.73 0.65ZM199.18-13.75L199.18-13.75Q199.18-14.35 197.9-14.35 196.63-14.35 194.28-12.4L194.28-12.4Q191.13-9.8 189.38-6.95L189.38-6.95Q189.68-6.85 190.03-6.85L190.03-6.85Q191.93-6.85 195.1-8.88 198.28-10.9 199.08-13.3L199.08-13.3Q199.18-13.55 199.18-13.75Z" opacity="1" transform="matrix(1,0,0,1,0,0)" fill="white" class="wordmark-text-0" id="SvgjsPath1350"></path></svg></g></svg></g></svg></g></svg></g></svg></g><defs><mask></mask></defs></svg><rect width="395.52" height="73.78379970544918" fill="black" stroke="none" visibility="hidden"></rect></g></mask><linearGradient x1="0.054" x2="0.941" y1="0.5" y2="0.5" id="465422fb-d6b4-49f8-af46-fde0e4d88cfc"><stop stop-color="#8c8c8c" offset="0"></stop><stop stop-color="#e3e4e5" offset="0.498"></stop><stop stop-color="#8c8c8c" offset="1"></stop></linearGradient><rect width="395.52" height="73.78379970544918" fill="#ffffff" mask="url(#274fe79c-acc5-42ec-93f8-a54dcc47ecf1)" data-fill-palette-color="primary"></rect></svg><rect width="395.52" height="73.78379970544918" fill="none" stroke="none" visibility="hidden"></rect></g></svg></g></svg>