<svg id="Layer_1" data-name="Layer 1" xmlns="http://www.w3.org/2000/svg" xmlns:xlink="http://www.w3.org/1999/xlink" viewBox="0 0 43.88 38.45"><defs><style>.cls-1{fill:url(#linear-gradient);}.cls-2{fill:#e8e7e4;}.cls-3{fill:url(#linear-gradient-2);}.cls-4{fill:url(#linear-gradient-3);}.cls-5{fill:url(#linear-gradient-4);}.cls-6{fill:url(#linear-gradient-5);}.cls-7{fill:#081d2a;}.cls-8{fill:#ff6d6d;}.cls-9{fill:#a13131;}.cls-10{fill:url(#linear-gradient-6);}.cls-11{fill:url(#linear-gradient-7);}</style><linearGradient id="linear-gradient" x1="21.61" y1="4.16" x2="22.1" y2="33.47" gradientUnits="userSpaceOnUse"><stop offset="0" stop-color="#ccb5a5"/><stop offset="1" stop-color="#ad5757"/></linearGradient><linearGradient id="linear-gradient-2" x1="21.83" y1="4.16" x2="22.33" y2="33.47" xlink:href="#linear-gradient"/><linearGradient id="linear-gradient-3" x1="33.26" y1="3.96" x2="33.75" y2="33.27" xlink:href="#linear-gradient"/><linearGradient id="linear-gradient-4" x1="28.28" y1="4.05" x2="28.77" y2="33.36" xlink:href="#linear-gradient"/><linearGradient id="linear-gradient-5" x1="15.04" y1="4.27" x2="15.53" y2="33.58" xlink:href="#linear-gradient"/><linearGradient id="linear-gradient-6" x1="21.94" y1="22.62" x2="22.49" y2="56.09" xlink:href="#linear-gradient"/><linearGradient id="linear-gradient-7" x1="20.05" y1="0.44" x2="21.76" y2="36.6" xlink:href="#linear-gradient"/></defs><path class="cls-1" d="M3.52,24c.86,6.85,5.3,10,18.24,10s17.62-4,18.61-10l-8.51,2.95-10-5.64-6.41,5.64Z"/><path class="cls-2" d="M2.47,13.64C2.47,7.15,7.14,0,21.85,0S41.41,7.89,41.41,13.64Z"/><path class="cls-3" d="M1.58,12.62c0-5.32,14.81.21,20.26.21,5.61,0,20.53-5.2,20.53-.21,0,3-20.93,4.12-20.93,4.12Z"/><path class="cls-2" d="M21.94,16.74C19.39,16.74,0,4.9,0,14.24c0,8.89,1.38,11.23,4.33,12.94a17.14,17.14,0,0,0,3.59,1.5,4.52,4.52,0,0,1,.5.14c.27.08.54.15.82.21a4.9,4.9,0,0,0,4.25-1.59l-.21,2.3h0L12.5,37,16.19,38l.75-3,2.36.33,0,3h5.09v-3l2.36-.33.74,3L31.39,37l-.79-7.23h0l-.21-2.29a5,5,0,0,0,4,1.64,19.41,19.41,0,0,0,5.14-1.9c3-1.7,4.33-4.05,4.33-12.94C43.88,4.9,25.07,16.74,21.94,16.74Z"/><path class="cls-4" d="M26.74,4.66C27,4.44,28,5.14,28,6.11c.12,3.2.54,6.72.54,6.72l2.27.08,4,8.36,5.57,4.62a2,2,0,0,1-1.61,0c-1-.34-7.34-6-7.34-6l-2-6.16c-.55-.76-2.59.06-2.64-.19C26.54,12.66,26.74,4.66,26.74,4.66Z"/><path class="cls-5" d="M26.82,22.7c-1.07-2.22-.75-4.09,0-4.42s1.72,1.61,3.71,1.46S26.82,22.7,26.82,22.7Z"/><path class="cls-6" d="M17,22.7c1.07-2.22.75-4.09,0-4.42s-1.72,1.61-3.71,1.46S17,22.7,17,22.7Z"/><path class="cls-7" d="M27.29,21.64c4.61-2.41,8.82-6,11.37-7.92C41,11.9,44.41,21.79,35,24,28.6,25.41,25.36,22.65,27.29,21.64Z"/><path class="cls-7" d="M16.55,21.64c-4.61-2.41-8.82-6-11.37-7.92C2.8,11.9-.57,21.79,8.84,24,15.24,25.41,18.48,22.65,16.55,21.64Z"/><path class="cls-7" d="M25.69,28.79c-2.41-3.41-2.82-7.41-3.75-7.44h0c-.93,0-1.34,4-3.75,7.44-.41.58.21,1.3.68,1.67.72.57,2.16-.94,3.08-.94S24.29,31,25,30.46C25.48,30.09,26.1,29.37,25.69,28.79Z"/><path class="cls-8" d="M30.53,19.74s4.17.78,6.23-1.5,1.15-3.93,1.15-3.93Z"/><path class="cls-8" d="M13.32,19.74s-4.17.78-6.23-1.5-1.15-3.93-1.15-3.93Z"/><path class="cls-9" d="M37.91,14.31l-7.38,5.43a10.7,10.7,0,0,0,2.58.08l4.82-3.61A3.18,3.18,0,0,0,37.91,14.31Z"/><path class="cls-9" d="M5.94,14.31l7.38,5.43a10.7,10.7,0,0,1-2.58.08L5.92,16.21A3.09,3.09,0,0,1,5.94,14.31Z"/><path class="cls-10" d="M13.49,27.44A4.9,4.9,0,0,1,9.24,29c-.28-.06-.55-.13-.82-.21a4.52,4.52,0,0,0-.5-.14,17.14,17.14,0,0,1-3.59-1.5A6.91,6.91,0,0,1,.83,22.7C2.07,24.6,10.66,28.55,13.49,27.44Zm16.92,0A4.88,4.88,0,0,0,34.65,29c.28-.06.55-.13.82-.21a4.52,4.52,0,0,1,.5-.14,17.14,17.14,0,0,0,3.59-1.5,7,7,0,0,0,3.51-4.48C41.82,24.6,33.23,28.55,30.41,27.44ZM12.5,37,16.19,38l.75-3,2.36.33,0,3h5.09v-3l2.36-.33.74,3L31.39,37l-.14-1.21-2,.41a1.4,1.4,0,0,1-1.66-1.07l-.28-1.25-2.85.42a1.11,1.11,0,0,0-.95,1l-.16,1.65h-3.1l-.16-1.65a1.11,1.11,0,0,0-1-1L16.64,34l-.39,1.31a1.41,1.41,0,0,1-1.6,1l-2-.36Z"/><polygon class="cls-11" points="16.85 0.31 21.12 5.23 27.07 7.33 27.07 9.14 20.57 6.28 18.05 3.58 13.48 3.2 13.48 2.65 17.49 2.59 16.33 0.39 16.85 0.31"/></svg>