<svg xmlns="http://www.w3.org/2000/svg" viewBox="0 0 295.58 39.69"><defs><style>.cls-1{fill:#56687a;}.cls-2{fill:#404f5d;}.cls-3{fill:#6b8297;}.cls-4{fill:#00eea1;}.cls-5{fill:#829db6;}.cls-6{fill:#48627a;}</style></defs><g id="Layer_2" data-name="Layer 2"><g id="win"><path class="cls-1" d="M11.33,10.76H284.25a11.33,11.33,0,0,1,11.33,11.33V39.69a0,0,0,0,1,0,0H0a0,0,0,0,1,0,0V22.09A11.33,11.33,0,0,1,11.33,10.76Z"/><rect class="cls-2" x="14.26" y="22.44" width="1.52" height="17.25"/><rect class="cls-2" x="55.63" y="22.44" width="1.52" height="17.25"/><rect class="cls-2" x="97" y="22.44" width="1.52" height="17.25"/><rect class="cls-2" x="128.25" y="22.44" width="1.52" height="17.25"/><rect class="cls-2" x="167.49" y="22.44" width="1.52" height="17.25"/><rect class="cls-2" x="199.11" y="22.44" width="1.52" height="17.25"/><rect class="cls-2" x="239.01" y="22.44" width="1.52" height="17.25"/><rect class="cls-2" x="280.63" y="22.44" width="1.52" height="17.25"/><polygon class="cls-2" points="191.14 23.93 192.11 31.85 188.56 35.63 191.13 31.95 188.56 23.93 191.14 23.93"/><path class="cls-3" d="M283.84,5.54h0l-1.26,1.73-2.06.47h-8.26l-1.72-1.55h-24.6L240.43,7h-1.9l-1.3-2.21L203,4.71,200.69,7l-8.84-.78H170.07l-1.21,1.55-3.44-1.55H142.54V7.74H129.47l-3-4H102.24L99.31,6.56,97.12,7l-3.27-.78H57.55L55.31,7.74,53.16,3.57,48.57.67,18.85,0,14.2,7.74l-1.72-1h-.71A11.77,11.77,0,0,0,0,18.56v5.19H12.52l2.19-.89,1.55,1.3h36.9l2.07-.85,1.93.85h38.2l1.55-.68,1.8.68h28.65l1-.85,1.42.62H239.1l1.29-.8,1.68.8h37.29L281,22.59l2.06,1.34h12.48V17.31A11.76,11.76,0,0,0,283.84,5.54Z"/><polygon class="cls-4" points="215.55 4.73 225.64 8.59 226.81 11.78 226.12 16.77 229.02 20.83 227.09 16.48 228.12 11.51 227.57 7.93 233.23 7.43 236.34 11.02 236.83 9.99 234.2 6.16 226.74 6.16 223.5 4.73 215.55 4.73"/><polygon class="cls-5" points="18.85 0 15.78 5.11 15.78 23.76 16.26 24.16 18.85 24.16 18.85 0"/><polygon class="cls-5" points="98.52 6.71 98.52 24.16 100.6 24.16 99.31 6.56 98.52 6.71"/><polygon class="cls-4" points="200.63 6.96 200.63 23.93 205.19 23.93 202.08 22.44 202.08 5.53 200.63 6.96"/><polygon class="cls-5" points="257.1 23.93 242.07 23.93 240.53 23.19 240.53 21.64 242.38 22.79 257.1 23.93"/><polygon class="cls-6" points="14.26 7.63 14.26 23.04 14.71 22.86 15.78 23.76 15.78 5.11 14.26 7.63"/><polygon class="cls-4" points="55.63 7.53 55.63 23.48 57.15 24.15 57.15 6.47 55.63 7.53"/><polygon class="cls-4" points="97.12 6.97 97 6.94 97 23.52 98.52 24.09 98.52 6.71 97.12 6.97"/><polygon class="cls-6" points="129.47 7.75 128.25 6.13 128.25 23.42 128.39 23.31 129.77 23.92 129.77 7.75 129.47 7.75"/><polygon class="cls-6" points="168.86 7.75 167.49 7.13 167.49 23.93 169.01 23.93 169.01 7.55 168.86 7.75"/><polygon class="cls-6" points="199.11 6.83 199.11 23.93 200.63 23.93 200.63 6.96 199.11 6.83"/><polygon class="cls-6" points="240.43 6.97 239.01 6.97 239.01 23.93 239.1 23.93 240.39 23.13 240.53 23.19 240.53 6.96 240.43 6.97"/><polygon class="cls-4" points="280.63 7.72 280.63 22.92 281.04 22.59 282.15 23.31 282.15 7.37 280.63 7.72"/><polygon class="cls-5" points="62.66 16.19 72.26 19.93 72.55 20.89 62.66 16.19"/><polygon class="cls-4" points="56.78 12.82 68.73 17.36 81.03 24.16 78.71 24.16 73.38 20.65 75.27 24.16 73.55 24.16 72.26 19.93 56.78 13.9 56.78 12.82"/><polygon class="cls-6" points="31.94 24.16 39.74 19.95 40.2 17.62 38.97 19.63 30 24.16 31.94 24.16"/><polygon class="cls-6" points="96.95 20.05 89.38 22.62 87.29 24.16 88.84 24.16 90.07 23.08 96.95 20.89 96.95 20.05"/><polygon class="cls-6" points="111.23 24.16 121.1 19.63 121.94 19.63 113.94 24.16 111.23 24.16"/><polygon class="cls-6" points="155.87 23.93 152.69 19.39 154.28 23.93 155.87 23.93"/><polygon class="cls-4" points="191.14 23.93 191.85 20.53 198.37 16.77 196.99 16.77 189.25 20.83 188.56 23.93 191.14 23.93"/><polygon class="cls-4" points="264.09 23.93 266.84 20.95 277.68 16.11 281.39 15.87 281.39 16.77 277.51 17 268.05 21.48 266.07 23.93 264.09 23.93"/></g></g></svg>